<svg id="그룹_89" data-name="그룹 89" xmlns="http://www.w3.org/2000/svg" xmlns:xlink="http://www.w3.org/1999/xlink" width="21.425" height="26.712" viewBox="0 0 21.425 26.712">
  <defs>
    <clipPath id="clip-path">
      <rect id="사각형_190" data-name="사각형 190" width="21.425" height="26.712" fill="none"/>
    </clipPath>
  </defs>
  <g id="그룹_88" data-name="그룹 88" transform="translate(0)" clip-path="url(#clip-path)">
    <path id="패스_346" data-name="패스 346" d="M19.686,26.712H1.739A1.741,1.741,0,0,1,0,24.973V1.739A1.741,1.741,0,0,1,1.739,0H19.686a1.741,1.741,0,0,1,1.739,1.739V24.973a1.741,1.741,0,0,1-1.739,1.739M1.739.9A.838.838,0,0,0,.9,1.739V24.973a.838.838,0,0,0,.837.837H19.686a.838.838,0,0,0,.837-.837V1.739A.838.838,0,0,0,19.686.9Z"/>
    <path id="패스_347" data-name="패스 347" d="M28.429,51.584h0a.524.524,0,0,1-.4-.184l-1.29-1.513a.451.451,0,1,1,.686-.585l1,1.179,1.911-2.208a.451.451,0,1,1,.682.59l-2.2,2.54a.524.524,0,0,1-.4.181" transform="translate(-23.201 -41.919)"/>
    <path id="패스_348" data-name="패스 348" d="M79.521,62.043H71.593a.451.451,0,0,1,0-.9h7.928a.451.451,0,1,1,0,.9" transform="translate(-61.978 -53.265)"/>
    <path id="패스_349" data-name="패스 349" d="M28.428,135.795h0a.524.524,0,0,1-.4-.185L26.739,134.1a.451.451,0,0,1,.686-.585l1,1.18,1.911-2.208a.451.451,0,1,1,.682.59l-2.2,2.54a.525.525,0,0,1-.4.181m.287-.77h0" transform="translate(-23.201 -115.281)"/>
    <path id="패스_350" data-name="패스 350" d="M79.521,146.253H71.593a.451.451,0,0,1,0-.9h7.928a.451.451,0,1,1,0,.9" transform="translate(-61.978 -126.627)"/>
    <path id="패스_351" data-name="패스 351" d="M28.429,93.661h0a.524.524,0,0,1-.4-.184l-1.29-1.513a.451.451,0,1,1,.686-.585l1.005,1.179,1.911-2.208a.451.451,0,1,1,.682.59l-2.2,2.54a.524.524,0,0,1-.4.181" transform="translate(-23.201 -78.575)"/>
    <path id="패스_352" data-name="패스 352" d="M79.521,104.119H71.593a.451.451,0,0,1,0-.9h7.928a.451.451,0,1,1,0,.9" transform="translate(-61.978 -89.921)"/>
  </g>
</svg>
