<svg id="그룹_81" data-name="그룹 81" xmlns="http://www.w3.org/2000/svg" xmlns:xlink="http://www.w3.org/1999/xlink" width="24.721" height="28.495" viewBox="0 0 24.721 28.495">
  <defs>
    <clipPath id="clip-path">
      <rect id="사각형_186" data-name="사각형 186" width="24.721" height="28.495" fill="none"/>
    </clipPath>
  </defs>
  <g id="그룹_80" data-name="그룹 80" transform="translate(0)" clip-path="url(#clip-path)">
    <path id="패스_297" data-name="패스 297" d="M32.395,74.525a1.576,1.576,0,1,1,.591-.116,1.578,1.578,0,0,1-.591.116m0-2.121a.545.545,0,1,0,.506.34h0a.546.546,0,0,0-.506-.34" transform="translate(-26.279 -60.863)" fill="#333"/>
    <path id="패스_298" data-name="패스 298" d="M54.4,50.035a1.576,1.576,0,1,1,.591-.116,1.578,1.578,0,0,1-.591.116m0-2.121a.546.546,0,1,0,.212.043.544.544,0,0,0-.212-.043" transform="translate(-45.042 -39.979)" fill="#333"/>
    <path id="패스_299" data-name="패스 299" d="M87.249,52.231a1.576,1.576,0,1,1,1.458-2.169h0a1.575,1.575,0,0,1-1.458,2.169m0-2.121a.546.546,0,1,0,.212.043.545.545,0,0,0-.212-.043" transform="translate(-73.054 -41.851)" fill="#333"/>
    <path id="패스_300" data-name="패스 300" d="M114.737,39.634a1.588,1.588,0,0,1-.241-.018,1.57,1.57,0,1,1,.241.018m0-2.121a.545.545,0,1,0,.44.222.541.541,0,0,0-.44-.222" transform="translate(-96.495 -31.11)" fill="#333"/>
    <path id="패스_301" data-name="패스 301" d="M43.343,62.5a.515.515,0,0,1-.383-.86l1.824-2.029a.515.515,0,0,1,.767.689l-1.824,2.029a.515.515,0,0,1-.383.171" transform="translate(-36.521 -50.69)" fill="#333"/>
    <path id="패스_302" data-name="패스 302" d="M100.129,49.051a.515.515,0,0,1-.219-.982l2.116-.989a.515.515,0,0,1,.437.934L100.346,49a.512.512,0,0,1-.218.049" transform="translate(-84.943 -40.105)" fill="#333"/>
    <path id="패스_303" data-name="패스 303" d="M70.446,55.781h-.035L67.689,55.6a.515.515,0,1,1,.069-1.029l2.722.182a.515.515,0,0,1-.034,1.03" transform="translate(-57.311 -46.533)" fill="#333"/>
    <path id="패스_304" data-name="패스 304" d="M34.008,55.583a.516.516,0,0,1-.456-.756l.138-.261a.515.515,0,1,1,.912.48l-.138.261a.516.516,0,0,1-.457.275" transform="translate(-28.561 -46.295)" fill="#333"/>
    <path id="패스_305" data-name="패스 305" d="M39.6,13.015a.515.515,0,0,1-.436-.79,5.728,5.728,0,0,1,.447-.615.515.515,0,0,1,.792.66,4.668,4.668,0,0,0-.366.5.515.515,0,0,1-.437.241M41.375,11.3a.515.515,0,0,1-.261-.96,5.744,5.744,0,0,1,.68-.339.515.515,0,1,1,.4.951,4.688,4.688,0,0,0-.557.278.512.512,0,0,1-.26.071m3.055-.693h-.058a4.688,4.688,0,0,0-.608-.009.515.515,0,1,1-.051-1.03,5.733,5.733,0,0,1,.74.011h.016a.515.515,0,0,1-.04,1.029m1.791-.02a.515.515,0,0,1-.087-1.023,4.686,4.686,0,0,0,.605-.147.515.515,0,0,1,.309.983,5.723,5.723,0,0,1-.738.179.506.506,0,0,1-.089.008M48.482,9.6a.515.515,0,0,1-.313-.925,4.708,4.708,0,0,0,.469-.41.515.515,0,0,1,.728.73,5.756,5.756,0,0,1-.572.5.513.513,0,0,1-.312.105M50.13,7.747a.515.515,0,0,1-.409-.829l.42-.549A.515.515,0,1,1,50.96,7l-.42.549a.514.514,0,0,1-.41.2" transform="translate(-33.33 -5.258)" fill="#333"/>
    <path id="패스_306" data-name="패스 306" d="M117.448,1.266a.515.515,0,0,1-.409-.829l.18-.235a.515.515,0,0,1,.819.626l-.179.235a.515.515,0,0,1-.41.2" transform="translate(-99.713 0)" fill="#333"/>
    <path id="패스_307" data-name="패스 307" d="M123.486,131.042a.515.515,0,0,1-.022-1.03c1.918-.083,2.852-.286,3.225-.7.35-.388.331-1.164.257-2.4a5.956,5.956,0,0,0-.615-2.438,6.809,6.809,0,0,0-4.784-3.137.515.515,0,0,1,.218-1.008,7.791,7.791,0,0,1,5.481,3.67,6.956,6.956,0,0,1,.729,2.852c.077,1.293.144,2.411-.521,3.148-.6.666-1.634.938-3.945,1.038h-.023" transform="translate(-103.301 -102.603)" fill="#333"/>
    <path id="패스_308" data-name="패스 308" d="M56.294,135.451c-5.494,0-7.348-.083-8.274-1.065-.694-.737-.626-1.868-.548-3.178a6.931,6.931,0,0,1,.731-2.852,6.6,6.6,0,0,1,3.125-2.878.515.515,0,1,1,.446.929,5.6,5.6,0,0,0-2.656,2.425,5.93,5.93,0,0,0-.616,2.437c-.074,1.243-.093,2.025.27,2.41.666.707,3.165.742,7.523.742.761,0,1.454,0,2.086-.007a.515.515,0,1,1,.009,1.031c-.634.005-1.33.007-2.094.007" transform="translate(-40.441 -106.956)" fill="#333"/>
    <path id="패스_309" data-name="패스 309" d="M86.242,83.806A3.733,3.733,0,0,1,82.7,80.337c-.059-.375-.119-.774-.143-1.156a4.778,4.778,0,0,1,1.182-3.572,3.406,3.406,0,0,1,5.008,0,4.778,4.778,0,0,1,1.182,3.572c-.023.382-.083.781-.143,1.156a3.733,3.733,0,0,1-3.544,3.469m0-8.263a2.362,2.362,0,0,0-1.753.773,3.747,3.747,0,0,0-.9,2.8c.02.336.076.706.132,1.057a2.527,2.527,0,1,0,5.051,0c.056-.35.111-.721.132-1.057a3.748,3.748,0,0,0-.9-2.8,2.361,2.361,0,0,0-1.753-.773" transform="translate(-70.39 -63.539)" fill="#333"/>
    <path id="패스_310" data-name="패스 310" d="M134.083,168.188a.515.515,0,0,1-.515-.515V164.4a.515.515,0,0,1,1.031,0v3.274a.515.515,0,0,1-.515.515" transform="translate(-113.899 -139.749)" fill="#333"/>
    <path id="패스_311" data-name="패스 311" d="M75.244,168.188a.515.515,0,0,1-.515-.515V164.4a.515.515,0,0,1,1.031,0v3.274a.516.516,0,0,1-.515.515" transform="translate(-63.724 -139.749)" fill="#333"/>
    <path id="패스_312" data-name="패스 312" d="M127.027,23.99h-1.642a.515.515,0,0,1,0-1.031h1.642a2.238,2.238,0,0,0,2.235-2.235v-6.57a2.3,2.3,0,0,0-2.3-2.3H125.5a.515.515,0,0,1,0-1.031h1.464a3.331,3.331,0,0,1,3.327,3.327v6.57a3.27,3.27,0,0,1-3.266,3.266" transform="translate(-106.481 -9.233)" fill="#333"/>
    <path id="패스_313" data-name="패스 313" d="M6.026,25.963a.865.865,0,0,1-.613-.254L4.236,24.533a1.866,1.866,0,0,0-1.329-.55A2.91,2.91,0,0,1,0,21.075V14.154a3.331,3.331,0,0,1,3.327-3.327h11.1a.515.515,0,0,1,0,1.031H3.327a2.3,2.3,0,0,0-2.3,2.3v6.921a1.878,1.878,0,0,0,1.876,1.876,2.89,2.89,0,0,1,2.058.852l1.061,1.061L7.087,23.8a2.89,2.89,0,0,1,2.057-.852h3.527a.515.515,0,0,1,0,1.031H9.144a1.866,1.866,0,0,0-1.328.55L6.639,25.709a.865.865,0,0,1-.613.254" transform="translate(0 -9.233)" fill="#333"/>
  </g>
</svg>
