<svg id="그룹_91" data-name="그룹 91" xmlns="http://www.w3.org/2000/svg" xmlns:xlink="http://www.w3.org/1999/xlink" width="21.425" height="24.448" viewBox="0 0 21.425 24.448">
  <defs>
    <clipPath id="clip-path">
      <rect id="사각형_191" data-name="사각형 191" width="21.425" height="24.448" fill="none"/>
    </clipPath>
  </defs>
  <g id="그룹_90" data-name="그룹 90" transform="translate(0)" clip-path="url(#clip-path)">
    <path id="패스_353" data-name="패스 353" d="M159.678,50.107a.408.408,0,0,1-.408-.408v-7.81a.408.408,0,0,1,.817,0V49.7a.408.408,0,0,1-.408.408" transform="translate(-140.689 -36.642)"/>
    <path id="패스_354" data-name="패스 354" d="M10.239,24.448H1.653A1.655,1.655,0,0,1,0,22.795V1.653A1.655,1.655,0,0,1,1.653,0H14.142a.408.408,0,0,1,0,.817H1.653a.838.838,0,0,0-.837.837V22.795a.838.838,0,0,0,.837.837h8.586a.408.408,0,0,1,0,.817"/>
    <path id="패스_355" data-name="패스 355" d="M122.979,5.657h-3.6A1.655,1.655,0,0,1,117.723,4V.409a.408.408,0,0,1,.7-.289l4.847,4.839a.408.408,0,0,1-.288.7M118.54,1.393V4a.838.838,0,0,0,.837.837h2.615Z" transform="translate(-103.989 0)"/>
    <path id="패스_356" data-name="패스 356" d="M101.878,136.114a.408.408,0,0,1-.4-.466l.339-2.372a.41.41,0,0,1,.116-.231l6.4-6.4a.421.421,0,0,1,.577,0l2.033,2.033a.409.409,0,0,1,0,.578l-6.4,6.4a.408.408,0,0,1-.231.115l-2.372.339a.418.418,0,0,1-.058,0m2.372-.748h0Zm-1.648-1.84-.243,1.7,1.7-.243,6.013-6.013-1.456-1.456Z" transform="translate(-89.632 -111.77)"/>
    <path id="패스_357" data-name="패스 357" d="M151.748,139.454a.407.407,0,0,1-.289-.12l-2-2a.408.408,0,0,1,.577-.577l2,2a.408.408,0,0,1-.289.7" transform="translate(-131.915 -120.695)"/>
    <path id="패스_358" data-name="패스 358" d="M24.473,47.245h-6.6a.408.408,0,0,1,0-.817h6.6a.408.408,0,0,1,0,.817" transform="translate(-15.43 -41.011)"/>
    <path id="패스_359" data-name="패스 359" d="M27.973,79.276h0l-10.1-.117a.408.408,0,1,1,.009-.817l10.1.117a.408.408,0,0,1,0,.817" transform="translate(-15.43 -69.203)"/>
  </g>
</svg>
