<svg id="그룹_38239" data-name="그룹 38239" xmlns="http://www.w3.org/2000/svg" xmlns:xlink="http://www.w3.org/1999/xlink" width="26.918" height="27.52" viewBox="0 0 26.918 27.52">
  <defs>
    <clipPath id="clip-path">
      <rect id="사각형_9103" data-name="사각형 9103" width="26.918" height="27.52" fill="none"/>
    </clipPath>
  </defs>
  <g id="그룹_38238" data-name="그룹 38238" clip-path="url(#clip-path)">
    <path id="패스_18306" data-name="패스 18306" d="M27.612,154.485H1.784a.285.285,0,1,1,0-.57H27.612a.285.285,0,1,1,0,.57" transform="translate(-1.239 -127.225)" fill="#333"/>
    <path id="패스_18307" data-name="패스 18307" d="M26.373,153.505H.545a.545.545,0,0,1,0-1.09H26.373a.545.545,0,0,1,0,1.09m-25.828-.57a.025.025,0,1,0,0,.05H26.373a.025.025,0,0,0,0-.05Z" transform="translate(0 -125.985)" fill="#333"/>
    <path id="패스_18308" data-name="패스 18308" d="M97.382,28.5h-9.32a.285.285,0,0,1-.285-.285V1.785a.285.285,0,0,1,.285-.285h9.32a.285.285,0,0,1,.285.285v26.43a.285.285,0,0,1-.285.285m-9.035-.57H97.1V2.07h-8.75Z" transform="translate(-72.556 -1.24)" fill="#333"/>
    <path id="패스_18309" data-name="패스 18309" d="M96.142,27.52h-9.32a.546.546,0,0,1-.545-.545V.545A.546.546,0,0,1,86.822,0h9.32a.546.546,0,0,1,.545.545v26.43a.546.546,0,0,1-.545.545m-9.32-27A.025.025,0,0,0,86.8.545v26.43a.025.025,0,0,0,.025.025h9.32a.025.025,0,0,0,.025-.025V.545A.025.025,0,0,0,96.142.52Zm9.3,26.43H86.847V.57h9.271Zm-8.75-.52H95.6V1.09h-8.23Z" transform="translate(-71.316 0)" fill="#333"/>
    <path id="패스_18310" data-name="패스 18310" d="M24.521,69.568H11.191a.285.285,0,0,1-.285-.285V51.469a.285.285,0,0,1,.285-.285h13.33a.285.285,0,1,1,0,.57H11.476V69H24.521a.285.285,0,1,1,0,.57" transform="translate(-9.015 -42.308)" fill="#333"/>
    <path id="패스_18311" data-name="패스 18311" d="M23.281,68.589H9.951a.546.546,0,0,1-.545-.545V50.229a.546.546,0,0,1,.545-.545h13.33a.545.545,0,1,1,0,1.09H10.5V67.5H23.281a.545.545,0,1,1,0,1.09M9.951,50.2a.025.025,0,0,0-.025.025V68.044a.025.025,0,0,0,.025.025h13.33a.025.025,0,1,0,0-.05H9.976V50.254H23.281a.025.025,0,1,0,0-.05Z" transform="translate(-7.775 -41.068)" fill="#333"/>
    <path id="패스_18312" data-name="패스 18312" d="M104.219,18.632h-5.69a.285.285,0,0,1,0-.57h5.69a.285.285,0,0,1,0,.57" transform="translate(-81.208 -14.93)" fill="#333"/>
    <path id="패스_18313" data-name="패스 18313" d="M102.98,17.652H97.29a.545.545,0,0,1,0-1.09h5.69a.545.545,0,1,1,0,1.09m-5.69-.57a.025.025,0,0,0,0,.05h5.69a.025.025,0,0,0,0-.05Z" transform="translate(-79.968 -13.69)" fill="#333"/>
    <path id="패스_18314" data-name="패스 18314" d="M104.219,35.506h-5.69a.285.285,0,0,1,0-.57h5.69a.285.285,0,0,1,0,.57" transform="translate(-81.208 -28.878)" fill="#333"/>
    <path id="패스_18315" data-name="패스 18315" d="M102.98,34.526H97.29a.545.545,0,0,1,0-1.09h5.69a.545.545,0,0,1,0,1.09m-5.69-.57a.025.025,0,0,0,0,.05h5.69a.025.025,0,0,0,0-.05Z" transform="translate(-79.968 -27.638)" fill="#333"/>
    <path id="패스_18316" data-name="패스 18316" d="M104.219,52.38h-5.69a.285.285,0,0,1,0-.57h5.69a.285.285,0,0,1,0,.57" transform="translate(-81.208 -42.826)" fill="#333"/>
    <path id="패스_18317" data-name="패스 18317" d="M102.98,51.4H97.29a.545.545,0,0,1,0-1.09h5.69a.545.545,0,1,1,0,1.09m-5.69-.57a.025.025,0,0,0,0,.05h5.69a.025.025,0,0,0,0-.05Z" transform="translate(-79.968 -41.586)" fill="#333"/>
    <path id="패스_18318" data-name="패스 18318" d="M104.219,69.254h-5.69a.285.285,0,0,1,0-.57h5.69a.285.285,0,0,1,0,.57" transform="translate(-81.208 -56.773)" fill="#333"/>
    <path id="패스_18319" data-name="패스 18319" d="M102.98,68.274H97.29a.545.545,0,0,1,0-1.09h5.69a.545.545,0,1,1,0,1.09m-5.69-.57a.025.025,0,0,0,0,.05h5.69a.025.025,0,0,0,0-.05Z" transform="translate(-79.968 -55.534)" fill="#333"/>
    <path id="패스_18320" data-name="패스 18320" d="M104.219,86.128h-5.69a.285.285,0,0,1,0-.57h5.69a.285.285,0,0,1,0,.57" transform="translate(-81.208 -70.721)" fill="#333"/>
    <path id="패스_18321" data-name="패스 18321" d="M102.98,85.148H97.29a.545.545,0,0,1,0-1.09h5.69a.545.545,0,0,1,0,1.09m-5.69-.57a.025.025,0,0,0,0,.05h5.69a.025.025,0,1,0,0-.05Z" transform="translate(-79.968 -69.481)" fill="#333"/>
    <path id="패스_18322" data-name="패스 18322" d="M106.771,119.161h-4.335a.285.285,0,0,1-.285-.285v-7.411a.285.285,0,0,1,.285-.285h4.335a.285.285,0,0,1,.285.285v7.411a.285.285,0,0,1-.285.285m-4.05-.57h3.765v-6.841h-3.765Z" transform="translate(-84.437 -91.901)" fill="#333"/>
    <path id="패스_18323" data-name="패스 18323" d="M105.53,118.182H101.2a.546.546,0,0,1-.545-.545v-7.41a.546.546,0,0,1,.545-.545h4.335a.546.546,0,0,1,.545.545v7.41a.546.546,0,0,1-.545.545M101.2,110.2a.025.025,0,0,0-.025.025v7.41a.025.025,0,0,0,.025.025h4.335a.025.025,0,0,0,.025-.025v-7.41a.025.025,0,0,0-.025-.025Zm4.31,7.411H101.22v-7.361h4.285Zm-3.765-.52h3.245v-6.32H101.74Z" transform="translate(-83.196 -90.661)" fill="#333"/>
    <path id="패스_18324" data-name="패스 18324" d="M20.726,67.713h-.74a.285.285,0,0,1,0-.57h.74a.285.285,0,0,1,0,.57" transform="translate(-16.285 -55.5)" fill="#333"/>
    <path id="패스_18325" data-name="패스 18325" d="M19.487,66.733h-.741a.545.545,0,0,1,0-1.09h.741a.545.545,0,1,1,0,1.09m-.741-.57a.025.025,0,0,0,0,.05h.741a.025.025,0,0,0,0-.05Z" transform="translate(-15.045 -54.26)" fill="#333"/>
    <path id="패스_18326" data-name="패스 18326" d="M39.063,67.713h-.74a.285.285,0,0,1,0-.57h.74a.285.285,0,1,1,0,.57" transform="translate(-31.442 -55.5)" fill="#333"/>
    <path id="패스_18327" data-name="패스 18327" d="M37.824,66.733h-.741a.545.545,0,1,1,0-1.09h.741a.545.545,0,1,1,0,1.09m-.741-.57a.025.025,0,1,0,0,.05h.741a.025.025,0,0,0,0-.05Z" transform="translate(-30.202 -54.26)" fill="#333"/>
    <path id="패스_18328" data-name="패스 18328" d="M57.4,67.713h-.74a.285.285,0,0,1,0-.57h.74a.285.285,0,1,1,0,.57" transform="translate(-46.598 -55.5)" fill="#333"/>
    <path id="패스_18329" data-name="패스 18329" d="M56.16,66.733h-.74a.545.545,0,1,1,0-1.09h.74a.545.545,0,1,1,0,1.09m-.74-.57a.025.025,0,1,0,0,.05h.74a.025.025,0,1,0,0-.05Z" transform="translate(-45.359 -54.26)" fill="#333"/>
    <path id="패스_18330" data-name="패스 18330" d="M75.736,67.713H75a.285.285,0,0,1,0-.57h.74a.285.285,0,0,1,0,.57" transform="translate(-61.755 -55.5)" fill="#333"/>
    <path id="패스_18331" data-name="패스 18331" d="M74.5,66.733h-.74a.545.545,0,1,1,0-1.09h.74a.545.545,0,0,1,0,1.09m-.74-.57a.025.025,0,0,0,0,.05h.74a.025.025,0,0,0,0-.05Z" transform="translate(-60.515 -54.26)" fill="#333"/>
    <path id="패스_18332" data-name="패스 18332" d="M20.726,79.77h-.74a.285.285,0,0,1,0-.57h.74a.285.285,0,0,1,0,.57" transform="translate(-16.285 -65.466)" fill="#333"/>
    <path id="패스_18333" data-name="패스 18333" d="M19.487,78.79h-.741a.545.545,0,0,1,0-1.09h.741a.545.545,0,1,1,0,1.09m-.741-.57a.025.025,0,0,0,0,.05h.741a.025.025,0,0,0,0-.05Z" transform="translate(-15.045 -64.226)" fill="#333"/>
    <path id="패스_18334" data-name="패스 18334" d="M39.063,79.77h-.74a.285.285,0,0,1,0-.57h.74a.285.285,0,1,1,0,.57" transform="translate(-31.442 -65.466)" fill="#333"/>
    <path id="패스_18335" data-name="패스 18335" d="M37.824,78.79h-.741a.545.545,0,0,1,0-1.09h.741a.545.545,0,0,1,0,1.09m-.741-.57a.025.025,0,1,0,0,.05h.741a.025.025,0,0,0,0-.05Z" transform="translate(-30.202 -64.226)" fill="#333"/>
    <path id="패스_18336" data-name="패스 18336" d="M57.4,79.77h-.74a.285.285,0,0,1,0-.57h.74a.285.285,0,1,1,0,.57" transform="translate(-46.598 -65.466)" fill="#333"/>
    <path id="패스_18337" data-name="패스 18337" d="M56.16,78.79h-.74a.545.545,0,1,1,0-1.09h.74a.545.545,0,1,1,0,1.09m-.74-.57a.025.025,0,1,0,0,.05h.74a.025.025,0,1,0,0-.05Z" transform="translate(-45.359 -64.226)" fill="#333"/>
    <path id="패스_18338" data-name="패스 18338" d="M75.736,79.77H75a.285.285,0,0,1,0-.57h.74a.285.285,0,0,1,0,.57" transform="translate(-61.755 -65.466)" fill="#333"/>
    <path id="패스_18339" data-name="패스 18339" d="M74.5,78.79h-.74a.545.545,0,0,1,0-1.09h.74a.545.545,0,0,1,0,1.09m-.74-.57a.025.025,0,0,0,0,.05h.74a.025.025,0,0,0,0-.05Z" transform="translate(-60.515 -64.226)" fill="#333"/>
    <path id="패스_18340" data-name="패스 18340" d="M20.726,91.827h-.74a.285.285,0,1,1,0-.57h.74a.285.285,0,1,1,0,.57" transform="translate(-16.285 -75.432)" fill="#333"/>
    <path id="패스_18341" data-name="패스 18341" d="M19.487,90.847h-.741a.545.545,0,0,1,0-1.09h.741a.545.545,0,1,1,0,1.09m-.741-.57a.025.025,0,0,0,0,.05h.741a.025.025,0,1,0,0-.05Z" transform="translate(-15.045 -74.192)" fill="#333"/>
    <path id="패스_18342" data-name="패스 18342" d="M39.063,91.827h-.74a.285.285,0,0,1,0-.57h.74a.285.285,0,1,1,0,.57" transform="translate(-31.442 -75.432)" fill="#333"/>
    <path id="패스_18343" data-name="패스 18343" d="M37.824,90.847h-.741a.545.545,0,1,1,0-1.09h.741a.545.545,0,1,1,0,1.09m-.741-.57a.025.025,0,1,0,0,.05h.741a.025.025,0,1,0,0-.05Z" transform="translate(-30.202 -74.192)" fill="#333"/>
    <path id="패스_18344" data-name="패스 18344" d="M57.4,91.827h-.74a.285.285,0,1,1,0-.57h.74a.285.285,0,1,1,0,.57" transform="translate(-46.598 -75.432)" fill="#333"/>
    <path id="패스_18345" data-name="패스 18345" d="M56.16,90.847h-.74a.545.545,0,1,1,0-1.09h.74a.545.545,0,1,1,0,1.09m-.74-.57a.025.025,0,1,0,0,.05h.74a.025.025,0,1,0,0-.05Z" transform="translate(-45.359 -74.192)" fill="#333"/>
    <path id="패스_18346" data-name="패스 18346" d="M75.736,91.827H75a.285.285,0,0,1,0-.57h.74a.285.285,0,0,1,0,.57" transform="translate(-61.755 -75.432)" fill="#333"/>
    <path id="패스_18347" data-name="패스 18347" d="M74.5,90.847h-.74a.545.545,0,1,1,0-1.09h.74a.545.545,0,0,1,0,1.09m-.74-.57a.025.025,0,0,0,0,.05h.74a.025.025,0,0,0,0-.05Z" transform="translate(-60.515 -74.192)" fill="#333"/>
    <path id="패스_18348" data-name="패스 18348" d="M20.726,103.884h-.74a.285.285,0,1,1,0-.57h.74a.285.285,0,1,1,0,.57" transform="translate(-16.285 -85.398)" fill="#333"/>
    <path id="패스_18349" data-name="패스 18349" d="M19.487,102.9h-.741a.545.545,0,1,1,0-1.09h.741a.545.545,0,1,1,0,1.09m-.741-.57a.025.025,0,1,0,0,.05h.741a.025.025,0,1,0,0-.05Z" transform="translate(-15.045 -84.158)" fill="#333"/>
    <path id="패스_18350" data-name="패스 18350" d="M39.063,103.884h-.74a.285.285,0,1,1,0-.57h.74a.285.285,0,1,1,0,.57" transform="translate(-31.442 -85.398)" fill="#333"/>
    <path id="패스_18351" data-name="패스 18351" d="M37.824,102.9h-.741a.545.545,0,1,1,0-1.09h.741a.545.545,0,1,1,0,1.09m-.741-.57a.025.025,0,1,0,0,.05h.741a.025.025,0,1,0,0-.05Z" transform="translate(-30.202 -84.158)" fill="#333"/>
    <path id="패스_18352" data-name="패스 18352" d="M57.4,103.884h-.74a.285.285,0,1,1,0-.57h.74a.285.285,0,1,1,0,.57" transform="translate(-46.598 -85.398)" fill="#333"/>
    <path id="패스_18353" data-name="패스 18353" d="M56.16,102.9h-.74a.545.545,0,1,1,0-1.09h.74a.545.545,0,1,1,0,1.09m-.74-.57a.025.025,0,1,0,0,.05h.74a.025.025,0,1,0,0-.05Z" transform="translate(-45.359 -84.158)" fill="#333"/>
    <path id="패스_18354" data-name="패스 18354" d="M75.736,103.884H75a.285.285,0,1,1,0-.57h.74a.285.285,0,1,1,0,.57" transform="translate(-61.755 -85.398)" fill="#333"/>
    <path id="패스_18355" data-name="패스 18355" d="M74.5,102.9h-.74a.545.545,0,1,1,0-1.09h.74a.545.545,0,0,1,0,1.09m-.74-.57a.025.025,0,1,0,0,.05h.74a.025.025,0,1,0,0-.05Z" transform="translate(-60.515 -84.158)" fill="#333"/>
    <path id="패스_18356" data-name="패스 18356" d="M20.726,115.941h-.74a.285.285,0,0,1,0-.57h.74a.285.285,0,0,1,0,.57" transform="translate(-16.285 -95.365)" fill="#333"/>
    <path id="패스_18357" data-name="패스 18357" d="M19.487,114.961h-.741a.545.545,0,0,1,0-1.09h.741a.545.545,0,0,1,0,1.09m-.741-.57a.025.025,0,1,0,0,.05h.741a.025.025,0,1,0,0-.05Z" transform="translate(-15.045 -94.125)" fill="#333"/>
    <path id="패스_18358" data-name="패스 18358" d="M39.063,115.941h-.74a.285.285,0,0,1,0-.57h.74a.285.285,0,1,1,0,.57" transform="translate(-31.442 -95.365)" fill="#333"/>
    <path id="패스_18359" data-name="패스 18359" d="M37.824,114.961h-.741a.545.545,0,1,1,0-1.09h.741a.545.545,0,1,1,0,1.09m-.741-.57a.025.025,0,1,0,0,.05h.741a.025.025,0,1,0,0-.05Z" transform="translate(-30.202 -94.125)" fill="#333"/>
    <path id="패스_18360" data-name="패스 18360" d="M57.4,115.941h-.74a.285.285,0,0,1,0-.57h.74a.285.285,0,1,1,0,.57" transform="translate(-46.598 -95.365)" fill="#333"/>
    <path id="패스_18361" data-name="패스 18361" d="M56.16,114.961h-.74a.545.545,0,1,1,0-1.09h.74a.545.545,0,1,1,0,1.09m-.74-.57a.025.025,0,1,0,0,.05h.74a.025.025,0,1,0,0-.05Z" transform="translate(-45.359 -94.125)" fill="#333"/>
    <path id="패스_18362" data-name="패스 18362" d="M75.736,115.941H75a.285.285,0,0,1,0-.57h.74a.285.285,0,0,1,0,.57" transform="translate(-61.755 -95.365)" fill="#333"/>
    <path id="패스_18363" data-name="패스 18363" d="M74.5,114.961h-.74a.545.545,0,1,1,0-1.09h.74a.545.545,0,0,1,0,1.09m-.74-.57a.025.025,0,1,0,0,.05h.74a.025.025,0,1,0,0-.05Z" transform="translate(-60.515 -94.125)" fill="#333"/>
    <path id="패스_18364" data-name="패스 18364" d="M20.726,128h-.74a.285.285,0,1,1,0-.57h.74a.285.285,0,1,1,0,.57" transform="translate(-16.285 -105.331)" fill="#333"/>
    <path id="패스_18365" data-name="패스 18365" d="M19.487,127.018h-.741a.545.545,0,0,1,0-1.09h.741a.545.545,0,0,1,0,1.09m-.741-.57a.025.025,0,0,0,0,.05h.741a.025.025,0,0,0,0-.05Z" transform="translate(-15.045 -104.091)" fill="#333"/>
    <path id="패스_18366" data-name="패스 18366" d="M39.063,128h-.74a.285.285,0,1,1,0-.57h.74a.285.285,0,1,1,0,.57" transform="translate(-31.442 -105.331)" fill="#333"/>
    <path id="패스_18367" data-name="패스 18367" d="M37.824,127.018h-.741a.545.545,0,1,1,0-1.09h.741a.545.545,0,1,1,0,1.09m-.741-.57a.025.025,0,1,0,0,.05h.741a.025.025,0,0,0,0-.05Z" transform="translate(-30.202 -104.091)" fill="#333"/>
    <path id="패스_18368" data-name="패스 18368" d="M57.4,128h-.74a.285.285,0,1,1,0-.57h.74a.285.285,0,1,1,0,.57" transform="translate(-46.598 -105.331)" fill="#333"/>
    <path id="패스_18369" data-name="패스 18369" d="M56.16,127.018h-.74a.545.545,0,1,1,0-1.09h.74a.545.545,0,1,1,0,1.09m-.74-.57a.025.025,0,1,0,0,.05h.74a.025.025,0,1,0,0-.05Z" transform="translate(-45.359 -104.091)" fill="#333"/>
    <path id="패스_18370" data-name="패스 18370" d="M75.736,128H75a.285.285,0,1,1,0-.57h.74a.285.285,0,1,1,0,.57" transform="translate(-61.755 -105.331)" fill="#333"/>
    <path id="패스_18371" data-name="패스 18371" d="M74.5,127.018h-.74a.545.545,0,1,1,0-1.09h.74a.545.545,0,0,1,0,1.09m-.74-.57a.025.025,0,0,0,0,.05h.74a.025.025,0,0,0,0-.05Z" transform="translate(-60.515 -104.091)" fill="#333"/>
    <path id="패스_18372" data-name="패스 18372" d="M20.726,140.055h-.74a.285.285,0,1,1,0-.57h.74a.285.285,0,1,1,0,.57" transform="translate(-16.285 -115.297)" fill="#333"/>
    <path id="패스_18373" data-name="패스 18373" d="M19.487,139.075h-.741a.545.545,0,0,1,0-1.09h.741a.545.545,0,0,1,0,1.09m-.741-.57a.025.025,0,1,0,0,.05h.741a.025.025,0,1,0,0-.05Z" transform="translate(-15.045 -114.057)" fill="#333"/>
    <path id="패스_18374" data-name="패스 18374" d="M39.063,140.055h-.74a.285.285,0,0,1,0-.57h.74a.285.285,0,1,1,0,.57" transform="translate(-31.442 -115.297)" fill="#333"/>
    <path id="패스_18375" data-name="패스 18375" d="M37.824,139.075h-.741a.545.545,0,0,1,0-1.09h.741a.545.545,0,0,1,0,1.09m-.741-.57a.025.025,0,1,0,0,.05h.741a.025.025,0,1,0,0-.05Z" transform="translate(-30.202 -114.057)" fill="#333"/>
    <path id="패스_18376" data-name="패스 18376" d="M57.4,140.055h-.74a.285.285,0,1,1,0-.57h.74a.285.285,0,1,1,0,.57" transform="translate(-46.598 -115.297)" fill="#333"/>
    <path id="패스_18377" data-name="패스 18377" d="M56.16,139.075h-.74a.545.545,0,0,1,0-1.09h.74a.545.545,0,0,1,0,1.09m-.74-.57a.025.025,0,1,0,0,.05h.74a.025.025,0,1,0,0-.05Z" transform="translate(-45.359 -114.057)" fill="#333"/>
    <path id="패스_18378" data-name="패스 18378" d="M75.736,140.055H75a.285.285,0,0,1,0-.57h.74a.285.285,0,0,1,0,.57" transform="translate(-61.755 -115.297)" fill="#333"/>
    <path id="패스_18379" data-name="패스 18379" d="M74.5,139.075h-.74a.545.545,0,0,1,0-1.09h.74a.545.545,0,0,1,0,1.09m-.74-.57a.025.025,0,1,0,0,.05h.74a.025.025,0,0,0,0-.05Z" transform="translate(-60.515 -114.057)" fill="#333"/>
  </g>
</svg>
