<svg xmlns="http://www.w3.org/2000/svg" width="105.91" height="26.82" viewBox="0 0 105.91 26.82">
  <g id="kotc" opacity="0.5">
    <rect id="사각형_1" data-name="사각형 1" width="7.66" height="26.82" transform="translate(0 0)" fill="#fff"/>
    <rect id="사각형_2" data-name="사각형 2" width="7.66" height="24.89" transform="translate(69.43 1.93)" fill="#fff"/>
    <path id="패스_1" data-name="패스 1" d="M25.32,0H17.66L7.7,13.28H7.66l.02.03-.02.03H7.7l9.96,13.48h7.66L15.34,13.31Z" transform="translate(0 0)" fill="#fff"/>
    <rect id="사각형_3" data-name="사각형 3" width="24.77" height="7.57" transform="translate(60.87 0)" fill="#fff"/>
    <path id="패스_2" data-name="패스 2" d="M96.66,18.97a5.58,5.58,0,1,1,3.72-9.74l5.53-5.53a13.4,13.4,0,1,0,0,19.37l-5.53-5.53a5.561,5.561,0,0,1-3.72,1.42Z" transform="translate(0 0)" fill="#fff"/>
    <path id="패스_3" data-name="패스 3" d="M50.78.4A13.19,13.19,0,0,0,39.21,7.24a10.551,10.551,0,0,1,0,12.74A13.209,13.209,0,1,0,50.78.4Zm0,18.7a5.49,5.49,0,1,1,5.49-5.49A5.493,5.493,0,0,1,50.78,19.1Z" transform="translate(0 0)" fill="#fff"/>
    <circle id="타원_1" data-name="타원 1" cx="5.81" cy="5.81" r="5.81" transform="translate(23.36 7.8)" fill="#fff" stroke="#e8651c" stroke-miterlimit="10" stroke-width="0.5"/>
  </g>
</svg>
