<svg width="44" height="42" viewBox="0 0 44 42" fill="none" xmlns="http://www.w3.org/2000/svg">
<g clip-path="url(#clip0_297_1247)">
<path d="M36.5985 37.3281H7.40175C5.76566 37.3281 4.43555 36.0327 4.43555 34.4393V7.19374C4.43555 3.22622 7.74819 0 11.822 0H32.1808C36.2521 0 39.5673 3.22622 39.5673 7.19374V34.4393C39.5673 36.0327 38.2372 37.3281 36.6011 37.3281H36.5985ZM11.822 0.985106C8.30704 0.985106 5.44704 3.77049 5.44704 7.19374V34.4393C5.44704 35.4884 6.32451 36.343 7.40175 36.343H36.5985C37.6758 36.343 38.5533 35.4884 38.5533 34.4393V7.19374C38.5533 3.77049 35.6932 0.985106 32.1783 0.985106H11.822Z" fill="#2B2B2B"/>
<path d="M27.1332 31.3462H16.869C16.5909 31.3462 16.3633 31.1245 16.3633 30.8536C16.3633 30.5827 16.5909 30.3611 16.869 30.3611H27.1332C27.4113 30.3611 27.6389 30.5827 27.6389 30.8536C27.6389 31.1245 27.4113 31.3462 27.1332 31.3462Z" fill="#2B2B2B"/>
<path d="M4.8652 18.1531H3.60589C1.6183 18.1531 0.00244141 16.5793 0.00244141 14.6436V9.78704C0.00244141 8.87581 0.763591 8.13452 1.69922 8.13452H4.8475C5.12566 8.13452 5.35325 8.35617 5.35325 8.62707C5.35325 8.89798 5.12566 9.11963 4.8475 9.11963H1.69669C1.31991 9.11963 1.01141 9.42009 1.01141 9.78704V14.6436C1.01141 16.0351 2.17463 17.1679 3.60336 17.1679H4.86267C5.14083 17.1679 5.36842 17.3896 5.36842 17.6605C5.36842 17.9314 5.14083 18.1531 4.86267 18.1531H4.8652Z" fill="#2B2B2B"/>
<path d="M40.3963 18.1531H39.228C38.9498 18.1531 38.7223 17.9314 38.7223 17.6605C38.7223 17.3896 38.9498 17.1679 39.228 17.1679H40.3963C41.825 17.1679 42.9882 16.0351 42.9882 14.6436V9.78704C42.9882 9.42009 42.6797 9.11963 42.3029 9.11963H39.1547C38.8765 9.11963 38.6489 8.89798 38.6489 8.62707C38.6489 8.35617 38.8765 8.13452 39.1547 8.13452H42.3029C43.2386 8.13452 43.9997 8.87581 43.9997 9.78704V14.6436C43.9997 16.5793 42.3839 18.1531 40.3963 18.1531Z" fill="#2B2B2B"/>
<path d="M12.5145 42H8.96673C7.87684 42 6.98926 41.1355 6.98926 40.0741V36.8651C6.98926 36.5942 7.21684 36.3726 7.495 36.3726C7.77317 36.3726 8.00075 36.5942 8.00075 36.8651V40.0741C8.00075 40.5937 8.43317 41.0149 8.96673 41.0149H12.5145C13.0481 41.0149 13.4805 40.5937 13.4805 40.0741V36.8651C13.4805 36.5942 13.7081 36.3726 13.9863 36.3726C14.2644 36.3726 14.492 36.5942 14.492 36.8651V40.0741C14.492 41.1355 13.6044 42 12.5145 42Z" fill="#2B2B2B"/>
<path d="M35.0302 42H31.4824C30.3925 42 29.5049 41.1355 29.5049 40.0741V36.8651C29.5049 36.5942 29.7325 36.3726 30.0106 36.3726C30.2888 36.3726 30.5164 36.5942 30.5164 36.8651V40.0741C30.5164 40.5937 30.9488 41.0149 31.4824 41.0149H35.0302C35.5637 41.0149 35.9961 40.5937 35.9961 40.0741V36.8651C35.9961 36.5942 36.2237 36.3726 36.5019 36.3726C36.7801 36.3726 37.0076 36.5942 37.0076 36.8651V40.0741C37.0076 41.1355 36.1201 42 35.0302 42Z" fill="#2B2B2B"/>
<path d="M10.6284 33.794C8.95438 33.794 7.58887 32.4666 7.58887 30.8362C7.58887 29.2059 8.95186 27.876 10.6284 27.876C12.305 27.876 13.6679 29.2034 13.6679 30.8362C13.6679 32.469 12.305 33.794 10.6284 33.794ZM10.6284 28.8611C9.51071 28.8611 8.60036 29.7477 8.60036 30.8362C8.60036 31.9248 9.51071 32.8089 10.6284 32.8089C11.7461 32.8089 12.6565 31.9223 12.6565 30.8362C12.6565 29.7501 11.7461 28.8611 10.6284 28.8611Z" fill="#2B2B2B"/>
<path d="M33.3721 33.8309C31.698 33.8309 30.3325 32.5034 30.3325 30.8731C30.3325 29.2427 31.6955 27.9128 33.3721 27.9128C35.0486 27.9128 36.4116 29.2403 36.4116 30.8731C36.4116 32.5059 35.0486 33.8309 33.3721 33.8309ZM33.3721 28.8979C32.2544 28.8979 31.344 29.7845 31.344 30.8731C31.344 31.9616 32.2544 32.8458 33.3721 32.8458C34.4898 32.8458 35.4001 31.9592 35.4001 30.8731C35.4001 29.787 34.4898 28.8979 33.3721 28.8979Z" fill="#2B2B2B"/>
<path d="M38.963 25.3074H5.03749C4.75932 25.3074 4.53174 25.0857 4.53174 24.8148C4.53174 24.5439 4.75932 24.3223 5.03749 24.3223H38.963C39.2412 24.3223 39.4688 24.5439 39.4688 24.8148C39.4688 25.0857 39.2412 25.3074 38.963 25.3074Z" fill="#2B2B2B"/>
<path d="M38.963 7.07788H5.03749C4.75932 7.07788 4.53174 6.85623 4.53174 6.58533C4.53174 6.31442 4.75932 6.09277 5.03749 6.09277H38.963C39.2412 6.09277 39.4688 6.31442 39.4688 6.58533C39.4688 6.85623 39.2412 7.07788 38.963 7.07788Z" fill="#2B2B2B"/>
</g>
<defs>
<clipPath id="clip0_297_1247">
<rect width="44" height="42" fill="white"/>
</clipPath>
</defs>
</svg>
