<svg width="15" height="16" viewBox="0 0 15 16" fill="none" xmlns="http://www.w3.org/2000/svg">
<g clip-path="url(#clip0_4_37)">
<mask id="mask0_4_37" style="mask-type:luminance" maskUnits="userSpaceOnUse" x="0" y="0" width="15" height="16">
<path d="M14.708 0H0V15.244H14.708V0Z" fill="white"/>
</mask>
<g mask="url(#mask0_4_37)">
<path d="M14.388 5.73998L8.174 0.306976C7.94655 0.109291 7.65535 0.000427246 7.354 0.000427246C7.05265 0.000427246 6.76145 0.109291 6.534 0.306976L0.32 5.74098C0.219508 5.8289 0.138969 5.93729 0.0837795 6.05888C0.0285903 6.18047 2.57712e-05 6.31245 0 6.44598L0 14.307C0.000264706 14.5554 0.0990691 14.7936 0.274733 14.9692C0.450398 15.1449 0.688573 15.2437 0.937 15.244H13.771C14.0194 15.2437 14.2576 15.1449 14.4333 14.9692C14.6089 14.7936 14.7077 14.5554 14.708 14.307V6.44598C14.7081 6.31228 14.6796 6.18011 14.6244 6.05833C14.5692 5.93656 14.4886 5.82801 14.388 5.73998ZM9.827 12.277H4.882C4.66983 12.277 4.46634 12.1927 4.31631 12.0427C4.16629 11.8926 4.082 11.6891 4.082 11.477C4.082 11.2648 4.16629 11.0613 4.31631 10.9113C4.46634 10.7613 4.66983 10.677 4.882 10.677H9.827C10.0392 10.677 10.2427 10.7613 10.3927 10.9113C10.5427 11.0613 10.627 11.2648 10.627 11.477C10.627 11.6891 10.5427 11.8926 10.3927 12.0427C10.2427 12.1927 10.0392 12.277 9.827 12.277Z" fill="#B5B5B5"/>
</g>
</g>
<defs>
<clipPath id="clip0_4_37">
<rect width="14.708" height="15.244" fill="white"/>
</clipPath>
</defs>
</svg>
