<svg width="42" height="39" viewBox="0 0 42 39" fill="none" xmlns="http://www.w3.org/2000/svg">
<g clip-path="url(#clip0_594_2176)">
<path d="M31.7286 38.9998C31.2562 38.9998 30.8129 38.8201 30.4786 38.4927L28.1002 36.1639C27.7658 35.8365 27.5823 35.4024 27.5823 34.9398C27.5823 34.4773 27.7658 34.0432 28.1002 33.7158L36.44 25.5497C37.1286 24.8754 38.2496 24.8754 38.9383 25.5497L41.3166 27.8785C42.0053 28.5528 42.0053 29.6505 41.3166 30.3248L32.9769 38.4909C32.6425 38.8183 32.1992 38.998 31.7268 38.998L31.7286 38.9998ZM29.4211 34.9398L31.7286 37.1993L39.9975 29.1026L37.69 26.8431L29.4211 34.9398Z" fill="#4E78BA"/>
<path d="M37.0432 27.1083C36.8143 27.1083 36.5853 27.0247 36.4091 26.8556L30.7874 21.4916C28.7597 19.5773 25.5837 19.298 23.2398 20.828C22.4913 21.3173 21.6318 21.5752 20.7524 21.5752H16.1955C15.3161 21.5752 14.6021 22.2744 14.6021 23.1355C14.6021 23.9966 15.3161 24.6958 16.1955 24.6958H23.387C23.8885 24.6958 24.2955 25.0943 24.2955 25.5854C24.2955 26.0764 23.8885 26.4749 23.387 26.4749H16.1955C14.315 26.4749 12.7851 24.9769 12.7851 23.1355C12.7851 21.2941 14.315 19.7961 16.1955 19.7961H20.7524C21.2721 19.7961 21.7826 19.6413 22.2314 19.3478C25.2803 17.3552 29.4084 17.7199 32.052 20.2124L37.6773 25.58C38.0371 25.9234 38.0443 26.4856 37.6937 26.8379C37.5156 27.0175 37.2794 27.1065 37.0432 27.1065V27.1083Z" fill="#4E78BA"/>
<path d="M29.3757 34.6161C29.1631 34.6161 28.9487 34.5432 28.7761 34.3938L27.5151 33.3067C27.3207 33.1395 27.07 33.047 26.8101 33.047H16.4554C14.5803 33.047 12.8178 32.3318 11.4933 31.0348L1.31655 21.0682C0.766016 20.5291 0.462585 19.8139 0.462585 19.0524C0.462585 18.291 0.766016 17.574 1.31655 17.0367C2.21594 16.156 3.41694 15.6775 4.68517 15.6721C5.95703 15.6739 7.15258 16.1614 8.05016 17.0456C9.90889 18.8763 14.3005 23.2743 14.3441 23.3188C14.6947 23.6692 14.6875 24.2332 14.3295 24.5766C13.9716 24.92 13.3956 24.9128 13.0449 24.5624C13.0013 24.5179 8.61523 20.1252 6.76194 18.2999C6.20777 17.7537 5.47009 17.453 4.68335 17.4512H4.67972C3.8948 17.4512 3.15712 17.7501 2.60113 18.2945C2.394 18.4974 2.27953 18.766 2.27953 19.0524C2.27953 19.3389 2.394 19.6075 2.60113 19.8103L12.7797 29.7769C13.7626 30.7395 15.069 31.2678 16.4572 31.2678H26.812C27.5133 31.2678 28.1892 31.5169 28.7161 31.9706L29.9771 33.0576C30.3532 33.3814 30.3913 33.9436 30.0588 34.3137C29.879 34.513 29.6282 34.6161 29.3757 34.6161Z" fill="#4E78BA"/>
<path d="M31.7286 38.9998C31.2562 38.9998 30.8129 38.8201 30.4786 38.4927L28.1002 36.1639C27.7658 35.8365 27.5823 35.4024 27.5823 34.9398C27.5823 34.4773 27.7658 34.0432 28.1002 33.7158L36.44 25.5497C37.1286 24.8754 38.2496 24.8754 38.9383 25.5497L41.3166 27.8785C42.0053 28.5528 42.0053 29.6505 41.3166 30.3248L32.9769 38.4909C32.6425 38.8183 32.1992 38.998 31.7268 38.998L31.7286 38.9998ZM29.4211 34.9398L31.7286 37.1993L39.9975 29.1026L37.69 26.8431L29.4211 34.9398Z" fill="#4E78BA"/>
<path d="M14.335 17.7485H10.1578C9.65632 17.7485 9.24933 17.3499 9.24933 16.8589V8.25333C9.24933 7.76229 9.65632 7.36377 10.1578 7.36377H14.335C14.8364 7.36377 15.2434 7.76229 15.2434 8.25333V16.8589C15.2434 17.3499 14.8364 17.7485 14.335 17.7485ZM11.0663 15.9694H13.4265V9.14289H11.0663V15.9694Z" fill="#4E78BA"/>
<path d="M18.5121 17.7485H14.335C13.8335 17.7485 13.4265 17.35 13.4265 16.859V10.4257C13.4265 9.93465 13.8335 9.53613 14.335 9.53613H18.5121C19.0136 9.53613 19.4206 9.93465 19.4206 10.4257V16.859C19.4206 17.35 19.0136 17.7485 18.5121 17.7485ZM15.2434 15.9694H17.6036V11.3152H15.2434V15.9694Z" fill="#4E78BA"/>
<path d="M22.6874 17.7485H18.5103C18.0088 17.7485 17.6018 17.35 17.6018 16.8589V5.34805C17.6018 4.85702 18.0088 4.4585 18.5103 4.4585H22.6874C23.1889 4.4585 23.5959 4.85702 23.5959 5.34805V16.8589C23.5959 17.35 23.1889 17.7485 22.6874 17.7485ZM19.4206 15.9694H21.7808V6.23761H19.4206V15.9694Z" fill="#4E78BA"/>
<path d="M26.8646 17.7485H22.6875C22.186 17.7485 21.779 17.3499 21.779 16.8589V0.889558C21.779 0.398522 22.186 0 22.6875 0H26.8646C27.3661 0 27.7731 0.398522 27.7731 0.889558V16.8589C27.7731 17.3499 27.3661 17.7485 26.8646 17.7485ZM23.5959 15.9693H25.9562V1.77912H23.5959V15.9693Z" fill="#4E78BA"/>
<path d="M31.7286 38.9998C31.2562 38.9998 30.8129 38.8201 30.4786 38.4927L28.1002 36.1639C27.7658 35.8365 27.5823 35.4024 27.5823 34.9398C27.5823 34.4773 27.7658 34.0432 28.1002 33.7158L36.44 25.5497C37.1286 24.8754 38.2496 24.8754 38.9383 25.5497L41.3166 27.8785C42.0053 28.5528 42.0053 29.6505 41.3166 30.3248L32.9769 38.4909C32.6425 38.8183 32.1992 38.998 31.7268 38.998L31.7286 38.9998ZM29.4211 34.9398L31.7286 37.1993L39.9975 29.1026L37.69 26.8431L29.4211 34.9398Z" fill="#4E78BA"/>
<path d="M37.0432 27.1083C36.8143 27.1083 36.5853 27.0247 36.4091 26.8556L30.7874 21.4916C28.7597 19.5773 25.5837 19.298 23.2398 20.828C22.4913 21.3173 21.6318 21.5752 20.7524 21.5752H16.1955C15.3161 21.5752 14.6021 22.2744 14.6021 23.1355C14.6021 23.9966 15.3161 24.6958 16.1955 24.6958H23.387C23.8885 24.6958 24.2955 25.0943 24.2955 25.5854C24.2955 26.0764 23.8885 26.4749 23.387 26.4749H16.1955C14.315 26.4749 12.7851 24.9769 12.7851 23.1355C12.7851 21.2941 14.315 19.7961 16.1955 19.7961H20.7524C21.2721 19.7961 21.7826 19.6413 22.2314 19.3478C25.2803 17.3552 29.4084 17.7199 32.052 20.2124L37.6773 25.58C38.0371 25.9234 38.0443 26.4856 37.6937 26.8379C37.5156 27.0175 37.2794 27.1065 37.0432 27.1065V27.1083Z" fill="#4E78BA"/>
<path d="M29.3757 34.6161C29.1631 34.6161 28.9487 34.5432 28.7761 34.3938L27.5151 33.3067C27.3207 33.1395 27.07 33.047 26.8101 33.047H16.4554C14.5803 33.047 12.8178 32.3318 11.4933 31.0348L1.31655 21.0682C0.766016 20.5291 0.462585 19.8139 0.462585 19.0524C0.462585 18.291 0.766016 17.574 1.31655 17.0367C2.21594 16.156 3.41694 15.6775 4.68517 15.6721C5.95703 15.6739 7.15258 16.1614 8.05016 17.0456C9.90889 18.8763 14.3005 23.2743 14.3441 23.3188C14.6947 23.6692 14.6875 24.2332 14.3295 24.5766C13.9716 24.92 13.3956 24.9128 13.0449 24.5624C13.0013 24.5179 8.61523 20.1252 6.76194 18.2999C6.20777 17.7537 5.47009 17.453 4.68335 17.4512H4.67972C3.8948 17.4512 3.15712 17.7501 2.60113 18.2945C2.394 18.4974 2.27953 18.766 2.27953 19.0524C2.27953 19.3389 2.394 19.6075 2.60113 19.8103L12.7797 29.7769C13.7626 30.7395 15.069 31.2678 16.4572 31.2678H26.812C27.5133 31.2678 28.1892 31.5169 28.7161 31.9706L29.9771 33.0576C30.3532 33.3814 30.3913 33.9436 30.0588 34.3137C29.879 34.513 29.6282 34.6161 29.3757 34.6161Z" fill="#4E78BA"/>
<path d="M31.7286 38.9998C31.2562 38.9998 30.8129 38.8201 30.4786 38.4927L28.1002 36.1639C27.7658 35.8365 27.5823 35.4024 27.5823 34.9398C27.5823 34.4773 27.7658 34.0432 28.1002 33.7158L36.44 25.5497C37.1286 24.8754 38.2496 24.8754 38.9383 25.5497L41.3166 27.8785C42.0053 28.5528 42.0053 29.6505 41.3166 30.3248L32.9769 38.4909C32.6425 38.8183 32.1992 38.998 31.7268 38.998L31.7286 38.9998ZM29.4211 34.9398L31.7286 37.1993L39.9975 29.1026L37.69 26.8431L29.4211 34.9398Z" fill="#4E78BA"/>
</g>
<defs>
<clipPath id="clip0_594_2176">
<rect width="41.3719" height="39" fill="white" transform="translate(0.462585)"/>
</clipPath>
</defs>
</svg>
