<svg width="37" height="36" viewBox="0 0 37 36" fill="none" xmlns="http://www.w3.org/2000/svg">
<path d="M36.1761 24.6011H0.823907C0.36911 24.6011 0 24.2332 0 23.7799V2.74914C0 1.23334 1.23751 0 2.75844 0H34.2416C35.7625 0 37 1.23334 37 2.74914V23.7799C37 24.2332 36.6309 24.6011 36.1761 24.6011ZM1.64781 22.9588H35.3522V2.74914C35.3522 2.13822 34.8545 1.64226 34.2416 1.64226H2.75844C2.14545 1.64226 1.64781 2.13822 1.64781 2.74914V22.9588Z" fill="#4E78BA"/>
<path d="M34.2416 29.3241H2.75844C1.23751 29.3241 0 28.0908 0 26.575V23.7799C0 23.3266 0.36911 22.9587 0.823907 22.9587H36.1761C36.6309 22.9587 37 23.3266 37 23.7799V26.575C37 28.0908 35.7625 29.3241 34.2416 29.3241ZM1.64781 24.601V26.575C1.64781 27.1859 2.14545 27.6819 2.75844 27.6819H34.2416C34.8545 27.6819 35.3522 27.1859 35.3522 26.575V24.601H1.64781Z" fill="#4E78BA"/>
<path d="M22.636 35.9999H14.3657C13.9109 35.9999 13.5417 35.6321 13.5417 35.1788V28.503C13.5417 28.0498 13.9109 27.6819 14.3657 27.6819H22.636C23.0908 27.6819 23.4599 28.0498 23.4599 28.503V35.1788C23.4599 35.6321 23.0908 35.9999 22.636 35.9999ZM15.1896 34.3577H21.8121V29.3241H15.1896V34.3577Z" fill="#4E78BA"/>
<path d="M27.0802 35.9999H9.91982C9.46503 35.9999 9.09592 35.6321 9.09592 35.1788C9.09592 34.7255 9.46503 34.3577 9.91982 34.3577H27.0785C27.5333 34.3577 27.9024 34.7255 27.9024 35.1788C27.9024 35.6321 27.5333 35.9999 27.0785 35.9999H27.0802Z" fill="#4E78BA"/>
</svg>
