<svg width="16" height="16" viewBox="0 0 16 16" fill="none" xmlns="http://www.w3.org/2000/svg">
<g clip-path="url(#clip0_461_1970)">
<mask id="mask0_461_1970" style="mask-type:luminance" maskUnits="userSpaceOnUse" x="0" y="0" width="16" height="16">
<path d="M16 0H0V15.75H16V0Z" fill="white"/>
</mask>
<g mask="url(#mask0_461_1970)">
<path d="M14 15.75H2C0.9 15.75 0 14.85 0 13.75V3.75C0 2.65 0.9 1.75 2 1.75H14C15.1 1.75 16 2.65 16 3.75V13.75C16 14.85 15.1 15.75 14 15.75ZM2 3.25C1.72 3.25 1.5 3.47 1.5 3.75V13.75C1.5 14.03 1.72 14.25 2 14.25H14C14.28 14.25 14.5 14.03 14.5 13.75V3.75C14.5 3.47 14.28 3.25 14 3.25H2Z" fill="#5485AA"/>
<path d="M3.5 2.5C3.09 2.5 2.75 2.16 2.75 1.75V0.75C2.75 0.34 3.09 0 3.5 0C3.91 0 4.25 0.34 4.25 0.75V1.75C4.25 2.16 3.91 2.5 3.5 2.5Z" fill="#5485AA"/>
<path d="M12.5 2.5C12.09 2.5 11.75 2.16 11.75 1.75V0.75C11.75 0.34 12.09 0 12.5 0C12.91 0 13.25 0.34 13.25 0.75V1.75C13.25 2.16 12.91 2.5 12.5 2.5Z" fill="#5485AA"/>
<path d="M5 7.75C5.55 7.75 6 8.2 6 8.75C6 9.3 5.55 9.75 5 9.75C4.45 9.75 4 9.3 4 8.75C4 8.2 4.45 7.75 5 7.75Z" fill="#84ADCB"/>
<path d="M8 7.75C8.55 7.75 9 8.2 9 8.75C9 9.3 8.55 9.75 8 9.75C7.45 9.75 7 9.3 7 8.75C7 8.2 7.45 7.75 8 7.75Z" fill="#84ADCB"/>
<path d="M11 7.75C11.55 7.75 12 8.2 12 8.75C12 9.3 11.55 9.75 11 9.75C10.45 9.75 10 9.3 10 8.75C10 8.2 10.45 7.75 11 7.75Z" fill="#84ADCB"/>
<path d="M5 10.75C5.55 10.75 6 11.2 6 11.75C6 12.3 5.55 12.75 5 12.75C4.45 12.75 4 12.3 4 11.75C4 11.2 4.45 10.75 5 10.75Z" fill="#84ADCB"/>
<path d="M8 10.75C8.55 10.75 9 11.2 9 11.75C9 12.3 8.55 12.75 8 12.75C7.45 12.75 7 12.3 7 11.75C7 11.2 7.45 10.75 8 10.75Z" fill="#84ADCB"/>
<path d="M11 10.75C11.55 10.75 12 11.2 12 11.75C12 12.3 11.55 12.75 11 12.75C10.45 12.75 10 12.3 10 11.75C10 11.2 10.45 10.75 11 10.75Z" fill="#84ADCB"/>
<path d="M15 4.75H1V5.75H15V4.75Z" fill="#5485AA"/>
</g>
</g>
<defs>
<clipPath id="clip0_461_1970">
<rect width="16" height="15.75" fill="white"/>
</clipPath>
</defs>
</svg>
