<svg width="35" height="35" viewBox="0 0 35 35" fill="none" xmlns="http://www.w3.org/2000/svg">
<circle cx="17.5" cy="17.5" r="17.5" fill="#CAD4E5"/>
<g clip-path="url(#clip0_588_1629)">
<path d="M20.8814 8.31736L19.678 20.9409C19.5871 21.8927 18.6081 22.5192 17.4477 22.5192C16.2879 22.5192 15.3083 21.8927 15.2174 20.9409L14.0145 8.31736C13.8304 6.38565 15.3934 5 17.4482 5C19.5031 5 21.066 6.38565 20.8814 8.31736ZM17.4482 24.0047C15.797 24.0047 14.4585 25.3466 14.4585 27.0021C14.4585 28.6575 15.797 29.9995 17.4482 29.9995C19.0994 29.9995 20.438 28.6575 20.438 27.0021C20.438 25.3466 19.0994 24.0047 17.4482 24.0047Z" fill="white"/>
</g>
<defs>
<clipPath id="clip0_588_1629">
<rect width="6.89655" height="25" fill="white" transform="translate(14 5)"/>
</clipPath>
</defs>
</svg>
