<svg width="38" height="34" viewBox="0 0 38 34" fill="none" xmlns="http://www.w3.org/2000/svg">
<g clip-path="url(#clip0_594_2210)">
<path d="M25.6762 4.60243L24.0034 2.95801V4.60243H25.6762Z" fill="#4E78BA"/>
<path d="M33.6385 11.7959C34.118 12.1898 34.4327 12.7399 34.5129 13.3845C34.4969 13.2083 34.4677 13.0392 34.4123 12.8759C34.2666 12.4491 33.997 12.081 33.64 11.7959H33.6385Z" fill="#4E78BA"/>
<path d="M3.45507 14.2454C3.45216 14.7825 3.45507 15.3225 3.45507 15.8482C3.45507 16.1935 3.45653 16.5372 3.45653 16.8825V14.5476C3.45653 14.4488 3.45653 14.3485 3.45361 14.2482L3.45507 14.2454Z" fill="#4E78BA"/>
<path d="M12.3398 30.0022C12.0469 30.0151 11.7438 30.028 11.4538 30.028H12.9256C13.0334 30.028 13.1441 30.0237 13.2549 30.0194C13.3788 30.0151 13.5055 30.0094 13.6323 30.0094C13.7591 30.0094 13.899 30.0151 14.0331 30.0309C14.2473 30.0566 14.428 30.1311 14.5839 30.2242C14.4644 30.1383 14.3464 30.071 14.2123 30.048C13.6367 29.9463 12.9766 29.975 12.3398 30.0022Z" fill="black"/>
<path d="M23.2515 30.3202C23.2107 30.356 23.1742 30.3903 23.1378 30.4247C22.9353 30.6152 22.705 30.8301 22.2679 30.8802C22.2008 30.8874 22.1323 30.8946 22.0638 30.8989C22.2343 30.8989 22.399 30.8888 22.5374 30.8545C22.7079 30.8115 22.8522 30.6869 23.0198 30.5422C23.2573 30.3374 23.5531 30.0824 24.0005 30.0308C24.0282 30.0279 24.0544 30.0251 24.0821 30.0222C24.0413 30.0222 24.0019 30.0251 23.9626 30.0265C23.6755 30.0423 23.4701 30.1268 23.2515 30.3202Z" fill="black"/>
<path d="M15.0895 30.6108C15.2396 30.7355 15.3781 30.8357 15.5369 30.8629C15.7191 30.8959 15.9172 30.8988 16.1271 30.8959C16.0353 30.893 15.9435 30.8887 15.8517 30.883C15.5398 30.8629 15.295 30.7469 15.0895 30.6123V30.6108Z" fill="black"/>
<path d="M4.31775 29.5981H11.4523C12.3631 29.5981 13.3875 29.4649 14.2895 29.6253C14.9511 29.7428 15.2134 30.4103 15.8794 30.4532C16.5118 30.4948 17.1632 30.4532 17.7971 30.4532H20.455C21.0277 30.4532 21.647 30.5191 22.2154 30.4532C22.5709 30.4117 22.7123 30.2169 22.9585 30.0006C23.2456 29.7485 23.5473 29.6196 23.9378 29.5995C24.2278 29.5838 24.5221 29.5995 24.8121 29.5995H33.6691C33.6604 29.5508 33.656 29.4993 33.656 29.4477V29.1698H24.8121C24.7189 29.1698 24.6242 29.1684 24.5294 29.1669C24.3298 29.1641 24.1229 29.1598 23.9145 29.1712C23.4307 29.197 23.0343 29.3603 22.6686 29.6826C22.6219 29.7241 22.5782 29.7657 22.5359 29.8044C22.3669 29.9619 22.3072 30.0135 22.1658 30.0292C21.819 30.0694 21.4285 30.055 21.0525 30.0407C20.8572 30.0335 20.6547 30.0264 20.4565 30.0264H17.7985C17.5843 30.0264 17.3686 30.0307 17.153 30.035C16.7406 30.0436 16.3136 30.0536 15.9114 30.0264C15.7147 30.0135 15.5704 29.9046 15.3344 29.7127C15.0954 29.5193 14.7996 29.2801 14.3697 29.2042C13.6979 29.0853 12.9882 29.1154 12.3033 29.1454C12.0061 29.1583 11.7263 29.1698 11.4552 29.1698H4.33232V29.4477C4.33232 29.4993 4.32649 29.5508 4.31921 29.5995L4.31775 29.5981Z" fill="#4E78BA"/>
<path d="M3.89515 29.4463C3.89515 29.5036 3.88349 29.5523 3.86746 29.5982H4.3192C4.32794 29.5495 4.33232 29.4979 4.33232 29.4463V29.1685H3.89515V29.4463Z" fill="#4E78BA"/>
<path d="M37.6882 29.7329C37.1767 29.1312 36.2149 29.1012 35.4047 29.1341V13.9962C35.4047 13.5465 35.4047 13.0809 35.24 12.6011C34.7795 11.2546 33.4404 10.3479 31.8287 10.2934C31.511 10.282 31.2458 10.4195 31.0884 10.6687C30.9208 10.9323 30.9106 11.2861 31.0622 11.5669C31.2094 11.839 31.4775 12.0009 31.7981 12.0123C32.6578 12.0424 33.605 12.5595 33.6575 13.6238C33.6633 13.7527 33.6619 13.8859 33.6589 14.0263C33.6589 14.1008 33.656 14.1739 33.656 14.2469V29.4478C33.656 29.4994 33.6619 29.5509 33.6691 29.5996H24.8121C24.5222 29.5996 24.2278 29.5839 23.9378 29.5996C23.5487 29.6211 23.2456 29.7486 22.9586 30.0007C22.7123 30.217 22.5709 30.4133 22.2154 30.4534C21.6456 30.5193 21.0277 30.4534 20.455 30.4534H17.7971C17.1632 30.4534 16.5133 30.4949 15.8794 30.4534C15.2134 30.409 14.9511 29.7429 14.2895 29.6254C13.3875 29.465 12.3631 29.5982 11.4523 29.5982H3.86747C3.8835 29.5524 3.89516 29.5037 3.89516 29.4464V29.1685H4.33233V14.5463C4.33233 14.4432 4.33233 14.3386 4.32941 14.2355C4.3265 14.0306 4.32359 13.8387 4.33233 13.6467C4.37896 12.5595 5.29993 12.041 6.19175 12.0109C6.69012 11.9937 7.05296 11.6041 7.03548 11.1042C7.01799 10.6258 6.64348 10.2748 6.16114 10.2934C4.10646 10.3651 2.60261 11.8319 2.58512 13.7814C2.57929 14.4718 2.58075 15.1737 2.58366 15.8512C2.58366 16.195 2.58512 16.5388 2.58512 16.8826V29.1699H1.9454C1.52135 29.1699 1.039 29.167 0.591637 29.475C-0.332242 30.1124 0.0480932 31.0707 0.27542 31.6437C0.303107 31.7125 0.329337 31.7798 0.35411 31.8471C0.393455 31.9517 0.429886 32.0663 0.469231 32.1823C0.66887 32.7954 0.918055 33.5574 1.68455 33.8396C1.98037 33.9485 2.25579 33.9528 2.49768 33.9571H2.5516C4.35127 33.9886 6.16697 34 7.97539 34C9.79109 34 11.598 33.99 13.3759 33.9786C15.1464 33.9685 16.9781 33.9571 18.7778 33.9571H35.5388C35.5839 33.9599 35.6306 33.9599 35.6787 33.9571C35.7428 33.9571 35.8054 33.947 35.8652 33.9341C36.9231 33.7637 37.2 33.0174 37.4681 32.294L37.5133 32.1751C37.5512 32.0749 37.5978 31.9674 37.6459 31.8557C37.9097 31.2484 38.2711 30.4175 37.6896 29.7329H37.6882ZM33.6385 11.796C33.9956 12.0811 34.2651 12.4492 34.4109 12.8761C34.4662 13.0394 34.4968 13.2098 34.5114 13.3846C34.4313 12.74 34.1165 12.19 33.6371 11.796H33.6385ZM3.45508 14.2455C3.45508 14.3472 3.45799 14.4475 3.45799 14.5463V16.8811C3.45799 16.5359 3.45799 16.1922 3.45654 15.8469C3.45508 15.3212 3.45362 14.7812 3.45654 14.2441L3.45508 14.2455ZM2.50934 33.0976H2.49186C2.51226 33.0976 2.5312 33.0976 2.55014 33.0976C2.55306 33.0976 2.55743 33.0976 2.56035 33.0976H2.5108H2.50934ZM35.9788 31.3544C35.9249 31.4732 35.8681 31.595 35.8244 31.7139C35.7981 31.7855 35.7748 31.8614 35.7515 31.9373C35.7224 32.0319 35.6699 32.2066 35.632 32.2382C35.632 32.2382 35.6306 32.2382 35.6262 32.2396H4.47514C4.26238 32.2396 4.04963 32.2425 3.83542 32.2468C3.42448 32.2539 3.00043 32.2596 2.59386 32.241C2.56909 32.241 2.54286 32.2396 2.51663 32.2396C2.4904 32.2396 2.46271 32.2396 2.43648 32.2396C2.40151 32.2396 2.35342 32.241 2.32136 32.2396C2.2791 32.1508 2.22664 31.9574 2.19895 31.8586C2.17127 31.7583 2.14504 31.6638 2.11589 31.585C2.08092 31.4904 2.02846 31.3844 1.97454 31.2713C1.92791 31.1753 1.84631 31.0048 1.79968 30.8802C2.03283 30.8301 2.51809 30.8272 3.2467 30.8731C3.39679 30.8831 3.50463 30.8888 3.5804 30.8888H12.927C13.0451 30.8888 13.1675 30.8845 13.2913 30.8802C13.5201 30.8716 13.7358 30.863 13.9296 30.886C14.0914 30.906 14.2269 31.0149 14.4338 31.1911C14.6684 31.3887 14.9584 31.6365 15.3825 31.711C15.7176 31.7698 16.0513 31.7612 16.3719 31.7511C16.4812 31.7483 16.5905 31.744 16.6969 31.744H21.3979C21.497 31.744 21.599 31.7483 21.7039 31.7511C22.0332 31.7626 22.4063 31.7755 22.756 31.6881C23.129 31.595 23.3899 31.3701 23.5997 31.1896C23.8037 31.0134 23.9363 30.9046 24.1054 30.886C24.3196 30.8616 24.5571 30.8702 24.8063 30.8788C24.9389 30.8831 25.0715 30.8888 25.1998 30.8888H36.0298C36.0706 30.8888 36.1144 30.886 36.1595 30.8831C36.1639 30.8831 36.1683 30.8831 36.1727 30.8831C36.1304 31.0278 36.0517 31.1996 35.9803 31.3558L35.9788 31.3544Z" fill="#4E78BA"/>
<path d="M27.2005 26.3422C27.6319 26.3264 28.0064 26.199 28.3036 25.9827C27.7135 26.3422 26.9251 26.3422 26.4413 26.3422H25.0788C25.3178 26.3422 25.5568 26.3451 25.7957 26.3479C26.2591 26.3537 26.7371 26.3594 27.1991 26.3422H27.2005Z" fill="#4E78BA"/>
<path d="M29.0876 23.3155C29.108 20.1427 29.0993 16.9341 29.0905 13.8214C29.0862 12.4349 29.0832 11.0497 29.0803 9.66455V22.6394C29.0803 22.8443 29.0832 23.0505 29.0862 23.2568C29.0862 23.2769 29.0862 23.2969 29.0862 23.3155H29.0876Z" fill="#4E78BA"/>
<path d="M11.1405 0.882261H11.276H12.503C12.3179 0.882261 12.1256 0.876532 11.9288 0.870802C11.7307 0.865072 11.5296 0.85791 11.3328 0.85791C11.1113 0.85791 10.8942 0.865072 10.6858 0.889424C10.8417 0.879397 10.9948 0.879397 11.1405 0.880829V0.882261Z" fill="#4E78BA"/>
<path d="M10.3565 26.2634C9.53316 26.0471 8.99836 25.4011 8.91821 24.4944C8.94444 24.9169 9.02896 25.298 9.30001 25.6375C9.58999 26.0027 9.94847 26.1775 10.3565 26.2634Z" fill="#4E78BA"/>
<path d="M9.198 1.74031C9.2592 1.64004 9.32478 1.55123 9.39618 1.47388C9.31895 1.55696 9.25337 1.64577 9.198 1.74031Z" fill="#4E78BA"/>
<path d="M29.9634 13.8187C29.9576 12.0725 29.9532 10.3264 29.9532 8.5803V8.08325C29.9532 7.60195 29.5773 7.23811 29.0789 7.23811C28.5805 7.23811 28.2045 7.60195 28.2045 8.08325V22.6395C28.2045 22.8487 28.2075 23.0592 28.2104 23.2698C28.2162 23.6752 28.2235 24.0934 28.2045 24.496C28.1681 25.2523 27.7572 25.4829 26.4413 25.4829H18.1949C17.3905 25.4829 16.5847 25.4886 15.7788 25.4929C14.1977 25.5029 12.5642 25.513 10.9612 25.4829C10.2122 25.4686 9.79399 25.0431 9.78088 24.284C9.77359 23.7912 9.77505 23.287 9.77796 22.8C9.77796 22.5507 9.78088 22.3 9.78088 22.0508V4.89754C9.78088 4.66835 9.77942 4.43916 9.77651 4.20997C9.77213 3.76449 9.76922 3.30468 9.78088 2.85633C9.79837 2.21174 10.0636 1.98685 10.2618 1.87369C10.5022 1.73618 10.7936 1.73904 11.1317 1.74191H20.3253C20.815 1.74191 21.1851 1.37377 21.1851 0.882453C21.1851 0.667589 21.1108 0.462753 20.9738 0.306619C20.8135 0.123269 20.5833 0.0229989 20.3253 0.0229989H12.5015C12.3252 0.0229989 12.1416 0.0172692 11.9551 0.0115395C11.0224 -0.017109 9.9674 -0.0500547 9.1397 0.548698C8.11819 1.28783 8.03221 2.3779 8.03221 3.34049V23.87C8.0293 24.6378 8.02638 25.4328 8.60927 26.1662C9.4326 27.2004 10.594 27.2018 11.6141 27.2004H25.0773C25.312 27.2004 25.548 27.2032 25.7841 27.2061C26.0202 27.209 26.2606 27.2118 26.5025 27.2118C26.7444 27.2118 26.9892 27.209 27.2326 27.2004C28.8195 27.1416 29.9386 25.9499 29.9532 24.3026C29.9838 20.8075 29.9736 17.2536 29.9634 13.8172V13.8187ZM25.7958 26.3481C25.5568 26.3452 25.3178 26.3423 25.0788 26.3423H26.4413C26.9251 26.3423 27.7135 26.3423 28.3036 25.9828C28.0049 26.2005 27.6319 26.3266 27.2005 26.3423C26.7386 26.3595 26.2592 26.3538 25.7972 26.3481H25.7958ZM10.3565 26.2636C9.94846 26.179 9.58998 26.0029 9.29999 25.6376C9.03041 25.2981 8.94443 24.9171 8.9182 24.4945C8.99835 25.4012 9.53461 26.0458 10.3565 26.2636Z" fill="#4E78BA"/>
<path d="M23.1291 4.60244L23.1247 2.0957L23.1276 4.60244H23.1291Z" fill="#4E78BA"/>
<path d="M22.2547 4.60248V5.46194C22.2547 5.93607 22.6467 6.32139 23.129 6.32139H27.7251C27.7557 6.32282 27.7849 6.32139 27.8155 6.32139C28.1798 6.30993 28.4727 6.0922 28.5907 5.77564C28.6067 5.73839 28.6213 5.69829 28.6315 5.65818C28.7073 5.37742 28.633 5.09524 28.4275 4.87751C28.4085 4.85602 28.3881 4.8374 28.3677 4.81735L24.0019 0.525805L23.795 0.322401L23.7454 0.273698C23.4977 0.0301864 23.1247 -0.0400023 22.7953 0.0946455C22.466 0.229293 22.2532 0.537264 22.2532 0.882478V4.60105L22.2547 4.60248ZM22.6919 0.883911C22.6919 0.511481 23.1698 0.316671 23.438 0.580237C24.9899 2.10577 26.5433 3.63273 28.0952 5.15826C28.0967 5.15969 28.0982 5.16256 28.0996 5.16399C28.1025 5.16686 28.104 5.16972 28.1069 5.17259C28.2439 5.31869 28.2482 5.49058 28.1768 5.63096C28.1229 5.77277 27.9991 5.88307 27.8053 5.89023C27.8009 5.89023 27.7965 5.89023 27.7921 5.89023C27.7892 5.89023 27.7878 5.89023 27.7849 5.89023H23.1276C22.89 5.89023 22.6904 5.69256 22.6904 5.4605V0.883911H22.6919Z" fill="#4E78BA"/>
<path d="M23.5662 5.03212H26.7313C25.6763 3.99505 24.6213 2.95797 23.5662 1.9209V5.03212ZM25.6763 4.6024H24.0034V2.95797L25.6763 4.6024Z" fill="#4E78BA"/>
<path d="M23.1291 5.89158H27.7863C27.7863 5.89158 27.7907 5.89158 27.7936 5.89158C27.6873 5.89874 27.5765 5.86293 27.4774 5.76696L26.7313 5.03356H23.5662V5.46328L23.1291 5.03356H23.5662V1.9209C23.317 1.67596 23.0679 1.43244 22.8201 1.1875C23.0693 1.0858 23.317 0.985528 23.5662 0.883826V1.9209C24.6213 2.95798 25.6763 3.99505 26.7313 5.03212H27.7863C27.9248 5.03212 28.0297 5.08512 28.0996 5.16391C28.0982 5.16247 28.0967 5.15961 28.0953 5.15818C26.5433 3.63265 24.9899 2.10568 23.438 0.580153C23.1699 0.316587 22.6919 0.511396 22.6919 0.883826V5.46185C22.6919 5.6939 22.8915 5.89158 23.1291 5.89158Z" fill="#4E78BA"/>
<path d="M23.5662 5.46171V5.03198H23.129L23.5662 5.46171Z" fill="#4E78BA"/>
<path d="M28.0996 5.16382C28.0996 5.16382 28.1044 5.17005 28.1077 5.17317C28.1044 5.17005 28.1028 5.16694 28.0996 5.16382Z" fill="#4E78BA"/>
<path d="M22.8201 1.18746C23.0693 1.43241 23.317 1.67592 23.5662 1.92086V0.883789C23.317 0.985491 23.0679 1.08576 22.8201 1.18746Z" fill="#4E78BA"/>
<path d="M27.8067 5.89013C28.0005 5.88297 28.1244 5.77124 28.1783 5.63086C28.1069 5.7698 27.9641 5.8758 27.8067 5.89013Z" fill="#4E78BA"/>
<path d="M26.7313 5.03198L27.4774 5.76538C27.5751 5.86136 27.6873 5.89717 27.7936 5.89C27.798 5.89 27.8024 5.89 27.8068 5.89C27.9641 5.87568 28.1069 5.76968 28.1783 5.63074C28.2352 5.48033 28.2119 5.29698 28.1084 5.17236C28.1055 5.1695 28.104 5.16663 28.1011 5.16377C28.0312 5.08498 27.9262 5.03198 27.7878 5.03198H26.7328H26.7313Z" fill="#4E78BA"/>
<path d="M28.1783 5.63074C28.2497 5.49036 28.2454 5.31847 28.1084 5.17236C28.2119 5.29555 28.2352 5.4789 28.1783 5.63074Z" fill="#4E78BA"/>
<path d="M26.2985 8.59888H18.8667C18.377 8.59888 18.0069 8.96844 18.0069 9.45833C18.0069 9.94822 18.377 10.3178 18.8667 10.3178H26.2985C26.7881 10.3178 27.1583 9.94822 27.1583 9.45833C27.1583 8.96844 26.7881 8.59888 26.2985 8.59888ZM26.2985 9.88806H18.8667C18.3027 9.88806 18.3042 9.0286 18.8667 9.0286H26.2985C26.8624 9.0286 26.861 9.88806 26.2985 9.88806Z" fill="#4E78BA"/>
<path d="M26.2985 9.02856H18.8667C18.3042 9.02856 18.3027 9.88802 18.8667 9.88802H26.2985C26.861 9.88802 26.8625 9.02856 26.2985 9.02856Z" fill="#4E78BA"/>
<path d="M16.6954 7.19792C16.3355 6.88994 15.8298 6.92146 15.518 7.27097L13.233 9.84503L12.2858 9.03285C12.0439 8.82515 11.7219 8.76212 11.4232 8.86239C11.1142 8.96696 10.8767 9.22766 10.8155 9.5299C10.7587 9.81209 10.8607 10.0885 11.0924 10.2877L12.0833 11.1385L12.1343 11.1815L12.7201 11.6828C12.8862 11.8261 13.115 11.912 13.3438 11.912C13.5726 11.912 13.7868 11.8304 13.9558 11.6413L14.3638 11.1815L14.5489 10.9724L16.7945 8.44269C17.1603 8.03015 17.0306 7.4844 16.6939 7.19648L16.6954 7.19792ZM16.4652 8.16194C15.5194 9.22766 14.5722 10.2948 13.6265 11.3605C13.4633 11.5453 13.1762 11.5052 13.0086 11.3605C12.4665 10.895 11.9244 10.4309 11.3809 9.96536C10.9554 9.60152 11.5762 8.99561 11.9988 9.35801C12.4243 9.72328 12.8498 10.0871 13.2753 10.4524C14.1321 9.48693 14.9904 8.52004 15.8473 7.55459C16.2174 7.13632 16.8338 7.74653 16.4652 8.16194Z" fill="#4E78BA"/>
<path d="M15.8473 7.55467C14.9904 8.52013 14.1321 9.48701 13.2753 10.4525C13.3919 10.5527 13.5099 10.653 13.6265 10.7533H13.0086L13.2753 10.4525C12.8498 10.0872 12.4243 9.72336 11.9988 9.35809C11.5762 8.99569 10.9554 9.60161 11.3809 9.96544C11.923 10.431 12.4651 10.8951 13.0086 11.3606C13.1777 11.5053 13.4633 11.5454 13.6265 11.3606C14.5722 10.2949 15.5194 9.22774 16.4651 8.16202C16.8338 7.74662 16.2174 7.13641 15.8473 7.55467Z" fill="#4E78BA"/>
<path d="M13.6265 10.7532C13.5099 10.6529 13.3919 10.5527 13.2753 10.4524L13.0086 10.7532H13.6265Z" fill="#4E78BA"/>
<path d="M26.2985 14.0835H18.8667C18.377 14.0835 18.0069 14.4531 18.0069 14.943C18.0069 15.4328 18.377 15.8024 18.8667 15.8024H26.2985C26.7881 15.8024 27.1583 15.4328 27.1583 14.943C27.1583 14.4531 26.7881 14.0835 26.2985 14.0835ZM26.2985 15.3727H18.8667C18.3027 15.3727 18.3042 14.5132 18.8667 14.5132H26.2985C26.8624 14.5132 26.861 15.3727 26.2985 15.3727Z" fill="#4E78BA"/>
<path d="M26.2985 14.5134H18.8667C18.3042 14.5134 18.3027 15.3729 18.8667 15.3729H26.2985C26.861 15.3729 26.8625 14.5134 26.2985 14.5134Z" fill="#4E78BA"/>
<path d="M16.6954 12.6826C16.3355 12.3732 15.8298 12.4062 15.518 12.7557L13.233 15.3297L12.2858 14.5176C12.0439 14.3099 11.7219 14.2468 11.4232 14.3471C11.1142 14.4517 10.8767 14.7124 10.8155 15.0146C10.7587 15.2968 10.8607 15.5733 11.0924 15.7724L12.0833 16.6232L12.1343 16.6662L12.7201 17.1675C12.8862 17.3108 13.115 17.3967 13.3438 17.3967C13.5726 17.3967 13.7868 17.3151 13.9558 17.126L14.3638 16.6662L14.5489 16.4571L16.7945 13.9274C17.1603 13.5149 17.0306 12.9691 16.6954 12.6812V12.6826ZM16.4652 13.6466C15.5194 14.7124 14.5722 15.7795 13.6265 16.8452C13.4633 17.03 13.1762 16.9899 13.0086 16.8452C12.4665 16.3797 11.9244 15.9156 11.3809 15.4501C10.9554 15.0862 11.5762 14.4803 11.9988 14.8427C12.4243 15.208 12.8498 15.5718 13.2753 15.9371C14.1321 14.9716 14.9904 14.0047 15.8473 13.0393C16.2174 12.621 16.8338 13.2312 16.4652 13.6466Z" fill="#4E78BA"/>
<path d="M15.8473 13.0393C14.9904 14.0047 14.1321 14.9716 13.2753 15.9371C13.3919 16.0374 13.5099 16.1376 13.6265 16.2379H13.0086L13.2753 15.9371C12.8498 15.5718 12.4243 15.208 11.9988 14.8427C11.5762 14.4803 10.9554 15.0862 11.3809 15.4501C11.923 15.9156 12.4651 16.3797 13.0086 16.8452C13.1777 16.9899 13.4633 17.03 13.6265 16.8452C14.5722 15.7795 15.5194 14.7124 16.4651 13.6466C16.8338 13.2312 16.2174 12.621 15.8473 13.0393Z" fill="#4E78BA"/>
<path d="M13.6265 16.2381C13.5099 16.1378 13.3919 16.0375 13.2753 15.9373L13.0086 16.2381H13.6265Z" fill="#4E78BA"/>
<path d="M26.2985 19.5669H18.8667C18.377 19.5669 18.0069 19.9365 18.0069 20.4263C18.0069 20.9162 18.377 21.2858 18.8667 21.2858H26.2985C26.7881 21.2858 27.1583 20.9162 27.1583 20.4263C27.1583 19.9365 26.7881 19.5669 26.2985 19.5669ZM26.2985 20.8561H18.8667C18.3027 20.8561 18.3042 19.9966 18.8667 19.9966H26.2985C26.8624 19.9966 26.861 20.8561 26.2985 20.8561Z" fill="#4E78BA"/>
<path d="M26.2985 19.9966H18.8667C18.3042 19.9966 18.3027 20.856 18.8667 20.856H26.2985C26.861 20.856 26.8625 19.9966 26.2985 19.9966Z" fill="#4E78BA"/>
<path d="M16.6954 18.1674C16.3355 17.8594 15.8298 17.8909 15.518 18.2405L13.233 20.8145L12.2858 20.0023C12.0439 19.7946 11.7219 19.7316 11.4232 19.8319C11.1142 19.9364 10.8767 20.1971 10.8155 20.4994C10.7587 20.7816 10.8607 21.058 11.0924 21.2571L12.0833 22.108L12.1343 22.151L12.7201 22.6523C12.8862 22.7956 13.115 22.8815 13.3438 22.8815C13.5726 22.8815 13.7868 22.7999 13.9558 22.6108L14.3638 22.151L14.5489 21.9418L16.7945 19.4122C17.1603 18.9996 17.0306 18.4539 16.6939 18.166L16.6954 18.1674ZM16.4652 19.1314C15.5194 20.1971 14.5722 21.2643 13.6265 22.33C13.4633 22.5148 13.1762 22.4747 13.0086 22.33C12.4665 21.8645 11.9244 21.4004 11.3809 20.9348C10.9554 20.571 11.5762 19.9651 11.9988 20.3275C12.4243 20.6928 12.8498 21.0566 13.2753 21.4219C14.1321 20.4564 14.9904 19.4895 15.8473 18.5241C16.2174 18.1058 16.8338 18.716 16.4652 19.1314Z" fill="#4E78BA"/>
<path d="M13.6265 21.7227C13.5099 21.6224 13.3919 21.5221 13.2753 21.4219L13.0086 21.7227H13.6265Z" fill="#4E78BA"/>
<path d="M15.8473 18.5242C14.9904 19.4896 14.1321 20.4565 13.2753 21.4219C13.3919 21.5222 13.5099 21.6225 13.6265 21.7228H13.0086L13.2753 21.4219C12.8498 21.0567 12.4243 20.6928 11.9988 20.3276C11.5762 19.9652 10.9554 20.5711 11.3809 20.9349C11.923 21.4005 12.4651 21.8646 13.0086 22.3301C13.1777 22.4748 13.4633 22.5149 13.6265 22.3301C14.5722 21.2644 15.5194 20.1972 16.4651 19.1315C16.8338 18.7161 16.2174 18.1059 15.8473 18.5242Z" fill="#4E78BA"/>
</g>
<defs>
<clipPath id="clip0_594_2210">
<rect width="38" height="34" fill="white"/>
</clipPath>
</defs>
</svg>
