<svg width="41" height="37" viewBox="0 0 41 37" fill="none" xmlns="http://www.w3.org/2000/svg">
<g clip-path="url(#clip0_594_2096)">
<path d="M8.43388 27.5208L8.12762 27.8863L8.43864 27.5287C8.43864 27.5287 8.43547 27.5223 8.43388 27.5208Z" fill="#4E78BA"/>
<path d="M16.1839 23.4796C15.8713 23.4192 15.565 23.5289 15.3445 23.7816L11.1331 28.6157L9.11464 26.8518C8.65764 26.4529 8.05307 26.5943 7.73412 26.9614C7.39295 27.3539 7.42786 27.9054 7.81504 28.2455L9.88266 30.0523L9.9382 30.1L10.5761 30.6562C10.757 30.8151 11.0061 30.9104 11.2552 30.9104C11.5044 30.9104 11.7376 30.8199 11.9217 30.6101L12.366 30.1L12.5675 29.868L16.7361 25.0831C16.9662 24.8193 17.036 24.4681 16.9249 24.1423C16.8107 23.8054 16.5203 23.5464 16.1855 23.4796H16.1839ZM16.3759 24.77C14.7716 26.6118 13.1658 28.4552 11.5615 30.297C11.3838 30.502 11.0712 30.4575 10.8887 30.297C9.96835 29.4929 9.04958 28.6904 8.12923 27.8863C7.66588 27.4827 8.34187 26.8105 8.80204 27.2125C9.59386 27.9054 10.3873 28.5967 11.1791 29.2895C12.6866 27.5589 14.1956 25.8268 15.7031 24.0962C16.1061 23.6322 16.7773 24.3091 16.3759 24.77Z" fill="#4E78BA"/>
<path d="M15.7031 24.0962C14.1956 25.8267 12.6865 27.5589 11.1791 29.2895C11.306 29.4007 11.4345 29.512 11.5615 29.6232H10.8887C10.9855 29.512 11.0823 29.4007 11.1791 29.2895C10.3873 28.5966 9.59385 27.9053 8.80203 27.2125C8.34185 26.8104 7.66587 27.4826 8.12922 27.8863L8.43547 27.5208C8.43547 27.5208 8.43865 27.5255 8.44023 27.5287L8.12922 27.8863C9.04957 28.6904 9.96833 29.4929 10.8887 30.297C11.0728 30.4575 11.3838 30.502 11.5615 30.297C13.1658 28.4552 14.7716 26.6118 16.3759 24.7699C16.7773 24.3091 16.1061 23.6321 15.7031 24.0962Z" fill="#4E78BA"/>
<path d="M11.5615 29.6233C11.4345 29.512 11.306 29.4008 11.1791 29.2896C11.0823 29.4008 10.9855 29.512 10.8887 29.6233H11.5615Z" fill="#4E78BA"/>
<path d="M30.7159 30.5036V28.3535C30.7159 27.8195 30.3065 27.4159 29.7638 27.4159C29.2211 27.4159 28.8117 27.8195 28.8117 28.3535C28.8117 28.8461 28.8181 29.3403 28.8228 29.833C28.8339 30.796 28.8466 31.7924 28.8117 32.7633C28.7657 34.068 27.8342 35.0136 26.5473 35.0597C26.4188 35.0644 26.2887 35.0628 26.1586 35.0597C26.0887 35.0597 26.0173 35.0581 25.9475 35.0581H5.26662C3.78296 35.0581 2.83563 34.9834 2.21836 33.9409C1.88354 33.3752 1.89465 32.668 1.90893 31.9211C1.91211 31.7797 1.91369 31.6382 1.91369 31.4984V5.357C1.91369 5.25847 1.91369 5.15995 1.91369 5.06301C1.90735 4.15402 1.901 3.36898 2.45797 2.71902C3.13871 1.92445 4.07017 1.92922 5.14761 1.93558H26.0586H26.2347C26.5061 1.93399 26.7616 1.93081 26.9948 1.9753C28.2405 2.21368 28.8054 3.3515 28.8133 4.37173C28.8165 4.8739 28.8165 5.37607 28.8133 5.87824C28.8133 6.13091 28.8133 6.382 28.8133 6.63467C28.8133 7.16862 29.2227 7.57226 29.7654 7.57226C30.3081 7.57226 30.7175 7.16862 30.7175 6.63467C30.7175 6.41378 30.7206 6.1913 30.7238 5.96564C30.7524 4.11111 30.7825 2.01026 28.8593 0.721471C27.7977 0.011124 26.6489 0.0190697 25.5365 0.0270154C25.4207 0.0270154 25.3033 0.0286046 25.1874 0.0286046H13.3911C12.3771 0.0286046 11.3457 0.0206588 10.346 0.0143023C8.34186 0 6.27107 -0.0143023 4.23361 0.0286046C1.88513 0.077868 0.0698197 1.87519 0.00952086 4.20964C-0.00476043 4.74677 2.95566e-10 5.29184 0.00476043 5.81785C0.00634724 6.08165 0.00952086 6.34545 0.00952086 6.60924V30.2461C0.00952086 30.5227 0.00793405 30.8008 0.00476043 31.0773C2.95566e-10 31.6287 -0.00317362 32.2008 0.00952086 32.7633C0.0650592 35.1391 1.82801 36.9062 4.20187 36.9666C5.1968 36.9921 6.19967 37 7.19936 37C8.19905 37 9.20033 36.9921 10.181 36.9841C11.1569 36.9762 12.1661 36.9682 13.1562 36.9682H25.0208C25.1763 36.9682 25.3334 36.9698 25.4905 36.973C26.4743 36.9857 27.4915 37.0016 28.4531 36.5137C30.7556 35.3441 30.7365 33.0478 30.7191 31.0216C30.7191 30.8484 30.7159 30.6768 30.7159 30.5068V30.5036ZM29.7654 5.87983C29.7654 5.46188 29.767 5.04394 29.7654 4.6244C29.7844 5.05347 29.7781 5.49843 29.7701 5.95134C29.767 6.1325 29.7654 6.31207 29.7638 6.49641C29.7638 6.29141 29.7638 6.08483 29.7638 5.87983H29.7654ZM29.229 2.44569C29.0402 2.14375 28.8054 1.87996 28.5324 1.66065C28.8292 1.89267 29.0545 2.15647 29.229 2.44569ZM25.5429 0.980501C25.7635 0.978912 25.9808 0.977322 26.1951 0.980501H25.1859C25.3049 0.980501 25.4239 0.980501 25.5429 0.980501ZM4.25265 0.98209C5.26186 0.961431 6.2806 0.953485 7.29774 0.953485C8.31489 0.953485 9.33838 0.961431 10.3397 0.967788C11.3393 0.974144 12.3739 0.98209 13.3911 0.98209H5.15237C4.51924 0.977322 3.84167 0.974144 3.19901 1.15848C3.52748 1.05042 3.88134 0.988446 4.25424 0.980501L4.25265 0.98209ZM0.961607 31.5C0.961607 31.6335 0.96002 31.7685 0.956847 31.9052C0.956847 31.9767 0.953673 32.0482 0.953673 32.1213C0.953673 31.7733 0.953673 31.4253 0.956847 31.0836C0.958433 30.8039 0.961607 30.5242 0.961607 30.2446V31.4984V31.5ZM10.173 36.0306C8.22126 36.0465 6.20284 36.064 4.22568 36.0147C3.74329 36.002 3.29263 35.8987 2.88958 35.7207C3.64332 36.0147 4.48433 36.0147 5.26821 36.0147H13.1578C12.1645 36.0147 11.1521 36.0227 10.1746 36.0322L10.173 36.0306ZM25.5048 36.0179C25.3429 36.0163 25.1811 36.0131 25.0208 36.0131H25.9491C26.0158 36.0131 26.0824 36.0131 26.149 36.0147C26.2236 36.0147 26.2934 36.0147 26.3712 36.0163C26.0887 36.0259 25.7999 36.0211 25.5048 36.0163V36.0179ZM28.0231 35.6604C27.7898 35.7795 27.5454 35.859 27.2931 35.9146C28.1532 35.7033 28.8609 35.1693 29.2957 34.4351C29.0355 34.9293 28.6356 35.3505 28.0231 35.6604Z" fill="#4E78BA"/>
<path d="M25.5429 0.980593C25.4239 0.980593 25.3049 0.982182 25.1859 0.982182H26.1951C25.9808 0.977415 25.7635 0.979004 25.5429 0.980593Z" fill="#4E78BA"/>
<path d="M29.7654 4.62598C29.767 5.04392 29.7654 5.46187 29.7654 5.8814C29.7654 6.0864 29.7654 6.29299 29.7654 6.49799C29.7654 6.31365 29.7701 6.13407 29.7717 5.95291C29.7781 5.50159 29.7844 5.05663 29.767 4.62598H29.7654Z" fill="#4E78BA"/>
<path d="M29.229 2.44568C29.0561 2.15805 28.8291 1.89425 28.5324 1.66064C28.8053 1.87995 29.0402 2.14374 29.229 2.44568Z" fill="#4E78BA"/>
<path d="M2.88959 35.7191C3.29264 35.8971 3.74329 36.0004 4.22568 36.0131C6.20285 36.0624 8.22127 36.0465 10.173 36.029C11.1505 36.0211 12.1629 36.0115 13.1562 36.0115H5.26663C4.48433 36.0115 3.64174 36.0115 2.888 35.7175L2.88959 35.7191Z" fill="#4E78BA"/>
<path d="M25.9491 36.0132H25.0208C25.1811 36.0132 25.3429 36.0148 25.5048 36.018C25.7984 36.0227 26.0887 36.0259 26.3712 36.018C26.2934 36.018 26.222 36.018 26.149 36.0164C26.0824 36.0164 26.0157 36.0148 25.9491 36.0148V36.0132Z" fill="#4E78BA"/>
<path d="M27.2932 35.9145C27.5455 35.8605 27.7898 35.7795 28.0231 35.6603C28.6356 35.3488 29.0355 34.9293 29.2957 34.4351C28.8609 35.1692 28.1532 35.7016 27.2932 35.9145Z" fill="#4E78BA"/>
<path d="M0.953686 32.1213C0.953686 32.0482 0.955273 31.9767 0.95686 31.9052C0.960034 31.7685 0.96162 31.6334 0.96162 31.4999V30.2461C0.96162 30.5258 0.960034 30.8055 0.95686 31.0852C0.953686 31.4268 0.9521 31.7748 0.953686 32.1229V32.1213Z" fill="#4E78BA"/>
<path d="M5.15078 0.980509H5.41895H13.3911C12.3739 0.980509 11.3393 0.972563 10.3397 0.966207C9.33837 0.95985 8.31964 0.951904 7.29774 0.951904C6.27583 0.951904 5.26186 0.958261 4.25265 0.980509C3.87975 0.988455 3.52589 1.05043 3.19742 1.15849C3.84008 0.972563 4.51923 0.977331 5.15078 0.980509Z" fill="#4E78BA"/>
<path d="M22.2709 20.6826C22.1677 20.7923 22.063 20.9019 21.9599 21.0116C21.7821 21.1991 21.6028 21.3898 21.4219 21.5821C21.4219 21.5821 21.4235 21.5837 21.4251 21.5853L22.2709 20.6842V20.6826Z" fill="#4E78BA"/>
<path d="M31.7949 11.9424L31.4474 11.615C31.2602 11.8152 31.0714 12.0139 30.8841 12.2141C27.8819 15.4083 24.8796 18.6024 21.8758 21.795C21.8409 21.8332 21.8044 21.8697 21.7695 21.9079L22.117 22.2352L31.7933 11.9424H31.7949Z" fill="#4E78BA"/>
<path d="M26.2569 26.1383C28.753 23.4828 31.2506 20.8274 33.7467 18.1719C34.475 17.3964 35.205 16.6209 35.9349 15.8454L35.589 15.5181L25.9126 25.8109L26.2585 26.1383H26.2569Z" fill="#4E78BA"/>
<path d="M21.3093 24.0913L20.911 23.7163C20.892 23.7974 20.8713 23.8768 20.8523 23.9579C20.4746 25.5025 20.0985 27.0456 19.7225 28.5902C21.3172 28.096 22.912 27.6018 24.5083 27.1075L24.11 26.7325L20.3842 27.8862L21.3093 24.0929V24.0913Z" fill="#4E78BA"/>
<path d="M21.9598 21.0101C22.0646 20.9004 22.1677 20.7908 22.2709 20.6811L21.4251 21.5822C21.4251 21.5822 21.433 21.5885 21.4362 21.5917L21.7726 21.9079C21.8075 21.8698 21.844 21.8332 21.8789 21.7951C24.8812 18.6009 27.8834 15.4067 30.8872 12.2142C31.0745 12.0139 31.2633 11.8153 31.4505 11.6151L31.0935 11.2782C30.9682 11.1606 30.8872 11.0207 30.8412 10.8713C27.931 13.967 25.0208 17.061 22.1106 20.1567C21.7361 20.554 21.36 20.9497 20.9871 21.3486C21.1442 21.3835 21.2934 21.4614 21.4219 21.579C21.6012 21.3867 21.7821 21.196 21.9598 21.0085V21.0101Z" fill="#4E78BA"/>
<path d="M19.5194 29.4197L19.7225 28.5886C19.4591 28.6697 19.1972 28.7507 18.9338 28.8334C19.129 29.0288 19.3242 29.2243 19.5194 29.4197Z" fill="#4E78BA"/>
<path d="M35.5874 15.5179L35.9143 15.1715C35.5128 14.7933 35.1129 14.4151 34.7115 14.0369L34.3846 14.3833L35.5874 15.5179Z" fill="#4E78BA"/>
<path d="M32.9977 13.077L33.3246 12.7306C32.9231 12.3524 32.5233 11.9742 32.1218 11.5959L31.7949 11.9424L32.9977 13.077Z" fill="#4E78BA"/>
<path d="M32.3185 9.9956L32.3979 9.91138H32.3931C32.3677 9.93998 32.3439 9.96859 32.3185 9.9956Z" fill="#4E78BA"/>
<path d="M31.4474 11.615L31.7949 11.9424L32.1218 11.5959C32.0059 11.4863 31.8901 11.3782 31.7759 11.2686C31.6664 11.3846 31.5585 11.5006 31.449 11.615H31.4474Z" fill="#4E78BA"/>
<path d="M32.774 10.9016L33.1008 10.5551L32.7549 10.2278C32.6454 10.3438 32.5375 10.4598 32.428 10.5742C32.5439 10.6839 32.6597 10.7919 32.774 10.9016Z" fill="#4E78BA"/>
<path d="M31.0602 9.96561C30.8143 10.2278 30.7445 10.5679 30.8381 10.8746C31.1301 10.5631 31.4236 10.2517 31.7172 9.94019L31.0602 9.96561Z" fill="#4E78BA"/>
<path d="M31.4474 11.6149C31.5569 11.4989 31.6648 11.3829 31.7743 11.2685C31.6553 11.1557 31.5363 11.0444 31.4173 10.9316C30.9698 10.5105 31.6442 9.83669 32.0901 10.2578C32.2027 10.3627 32.3138 10.4692 32.4265 10.574C32.536 10.458 32.6439 10.342 32.7534 10.2276L32.4169 9.91138H32.3963L32.317 9.9956C32.3424 9.96859 32.3662 9.93998 32.3916 9.91138L31.7172 9.93839C31.4252 10.2499 31.1316 10.5613 30.8381 10.8728C30.8841 11.0206 30.965 11.1604 31.0904 11.2796L31.4474 11.6165V11.6149Z" fill="#4E78BA"/>
<path d="M31.7743 11.2687C31.8901 11.3783 32.006 11.4864 32.1202 11.596L32.7724 10.9016C32.6566 10.7919 32.5407 10.6839 32.4265 10.5742C32.2091 10.8062 31.9917 11.0367 31.7743 11.2687Z" fill="#4E78BA"/>
<path d="M19.8367 22.0908C19.8272 22.1337 19.8209 22.1766 19.8161 22.2195C19.8812 22.0129 19.97 21.8127 20.116 21.6108C19.9795 21.7411 19.8796 21.908 19.8367 22.0908Z" fill="#4E78BA"/>
<path d="M22.1186 22.2369L21.971 22.3927C21.9107 22.4562 21.852 22.5198 21.7917 22.5834C22.1931 22.9616 22.593 23.3398 22.9945 23.7164L23.3214 23.37L22.1186 22.2354V22.2369Z" fill="#4E78BA"/>
<path d="M23.1769 25.655C22.8405 25.5756 22.5581 25.3054 22.4565 24.9685C22.4089 24.8112 22.4042 24.6523 22.4375 24.5013C22.1043 24.1883 21.7726 23.8736 21.4394 23.5605L21.3093 24.0929L24.1084 26.7325L24.6305 26.5704L23.6435 25.6391C23.5594 25.6662 23.4721 25.6805 23.3832 25.6805C23.315 25.6805 23.2452 25.6725 23.1754 25.6566L23.1769 25.655Z" fill="#4E78BA"/>
<path d="M24.3798 25.0242C24.7812 25.4024 25.1811 25.7806 25.5826 26.1588L25.9094 25.8124L24.7066 24.6777L24.3798 25.0242Z" fill="#4E78BA"/>
<path d="M21.2759 21.7411L21.4235 21.5837C21.4235 21.5837 21.4219 21.5822 21.4203 21.5806C21.3108 21.6966 21.2029 21.8126 21.095 21.9286C21.095 21.9286 21.095 21.9286 21.0966 21.9302C21.1553 21.8666 21.2156 21.803 21.2743 21.7395L21.2759 21.7411Z" fill="#4E78BA"/>
<path d="M21.4394 23.5591C21.3061 23.4336 21.1744 23.308 21.0411 23.1841C20.9983 23.3621 20.9539 23.5385 20.911 23.7164L21.3093 24.0915L21.4394 23.5591Z" fill="#4E78BA"/>
<path d="M20.1096 22.9598L20.1144 22.9646C20.1271 22.9105 20.1414 22.8565 20.1541 22.8025C20.2001 22.6134 20.2382 22.4529 20.2905 22.3019C20.289 22.1589 20.3635 22.0206 20.4762 21.9269C20.519 21.8649 20.5651 21.8013 20.6238 21.7393C20.7428 21.609 20.865 21.4803 20.9871 21.3516C20.8364 21.3182 20.6793 21.323 20.5238 21.3707C20.3699 21.4167 20.2318 21.5026 20.1176 21.6122C19.9716 21.814 19.8827 22.0143 19.8177 22.2209C19.7939 22.4942 19.8954 22.7596 20.1112 22.9614L20.1096 22.9598Z" fill="#4E78BA"/>
<path d="M21.7917 22.5832C21.852 22.5197 21.9107 22.4561 21.971 22.3925L22.1185 22.2368L21.771 21.9094C21.6631 22.0254 21.5536 22.1414 21.4442 22.2559C21.56 22.3655 21.6758 22.4736 21.7917 22.5832Z" fill="#4E78BA"/>
<path d="M21.0982 21.9318C21.0982 21.9318 21.1046 21.9365 21.1093 21.9397C21.222 22.0446 21.3331 22.1511 21.4457 22.2559C21.5536 22.1399 21.6631 22.0255 21.7726 21.9095L21.4362 21.5933C21.4362 21.5933 21.4283 21.5869 21.4251 21.5837L21.2775 21.7411C21.2188 21.8046 21.1585 21.8682 21.0998 21.9318H21.0982Z" fill="#4E78BA"/>
<path d="M20.4349 22.6135C20.3334 22.5181 20.2921 22.4085 20.2905 22.302C20.2382 22.453 20.2001 22.6151 20.1541 22.8026C20.1414 22.8566 20.1271 22.9106 20.1144 22.9647L20.911 23.7163C20.9538 23.5384 20.9982 23.362 21.0411 23.184C20.8396 22.9933 20.638 22.8042 20.4365 22.6135H20.4349Z" fill="#4E78BA"/>
<path d="M20.4762 21.927C20.6428 21.7887 20.8919 21.7474 21.0966 21.9285C21.2045 21.8125 21.3124 21.6965 21.4219 21.5805C21.2918 21.4629 21.1442 21.3851 20.9871 21.3501C20.8666 21.4788 20.7444 21.6075 20.6238 21.7378C20.5651 21.8014 20.519 21.8634 20.4762 21.9254V21.927Z" fill="#4E78BA"/>
<path d="M21.3854 22.8599L21.1775 22.6597C21.1617 22.7105 21.1426 22.7614 21.1331 22.8027C21.1268 22.8313 21.1188 22.8599 21.1125 22.8885C21.1157 22.8885 21.1188 22.8901 21.122 22.8917C21.2204 22.9076 21.3093 22.8917 21.3854 22.8599Z" fill="#4E78BA"/>
<path d="M21.6536 22.7312C21.6409 22.7757 21.6282 22.817 21.6155 22.8535C21.6076 22.8758 21.5997 22.898 21.5965 22.9171L21.4394 23.5607C21.7726 23.8738 22.1059 24.1884 22.4375 24.5015C22.474 24.3394 22.5549 24.1868 22.6787 24.0549L22.9945 23.718C22.593 23.3398 22.1931 22.9616 21.7917 22.585C21.7456 22.6342 21.6996 22.6835 21.6536 22.7328V22.7312Z" fill="#4E78BA"/>
<path d="M21.1776 22.6597L20.8047 22.3005C20.7539 22.3991 20.719 22.5055 20.6841 22.639C20.692 22.612 20.7015 22.5818 20.7111 22.5516C20.7206 22.5214 20.7364 22.4753 20.7396 22.4579C20.7396 22.4579 20.7364 22.4738 20.7396 22.5008C20.7476 22.6311 20.8729 22.8424 21.1125 22.8869C21.1189 22.8583 21.1268 22.8297 21.1331 22.8011C21.1427 22.7598 21.1617 22.7105 21.1776 22.6581V22.6597Z" fill="#4E78BA"/>
<path d="M21.0712 21.9587C21.0807 21.9491 21.0887 21.9396 21.0982 21.9301C21.0982 21.9301 21.0982 21.9301 21.0966 21.9285C21.0871 21.9396 21.0776 21.9491 21.0681 21.9602C21.0681 21.9602 21.0712 21.9602 21.0728 21.9602L21.0712 21.9587Z" fill="#4E78BA"/>
<path d="M21.6155 22.8534C21.6282 22.8168 21.6409 22.7755 21.6536 22.731C21.6996 22.6817 21.7456 22.6325 21.7916 22.5832C21.6758 22.4736 21.56 22.3655 21.4441 22.2559C21.3664 22.3385 21.2886 22.4211 21.2109 22.5038C21.2077 22.5514 21.195 22.6055 21.1775 22.6595L21.3854 22.8597C21.3108 22.8931 21.2204 22.909 21.122 22.8915C21.1188 22.8915 21.1157 22.8899 21.1125 22.8883C21.0887 22.9869 21.0649 23.0854 21.0411 23.1839C21.1744 23.3095 21.3061 23.435 21.4394 23.559L21.5965 22.9154C21.6012 22.8963 21.6092 22.8756 21.6155 22.8518V22.8534Z" fill="#4E78BA"/>
<path d="M20.2906 22.302C20.3366 22.1717 20.3937 22.0494 20.4762 21.927C20.3635 22.0208 20.289 22.1574 20.2906 22.302Z" fill="#4E78BA"/>
<path d="M21.1188 22.6024C21.1506 22.569 21.1807 22.5372 21.2109 22.5039C21.2109 22.4927 21.214 22.4816 21.214 22.4705C21.2029 22.3116 21.1379 22.5817 21.1188 22.6024Z" fill="#4E78BA"/>
<path d="M21.0411 23.1839C21.0649 23.0854 21.0887 22.9869 21.1125 22.8883C20.8729 22.8423 20.7475 22.6325 20.7396 22.5022C20.738 22.4752 20.7396 22.4593 20.7396 22.4593C20.7364 22.4767 20.7206 22.5228 20.711 22.553C20.7015 22.5832 20.692 22.6118 20.6841 22.6404C20.719 22.5069 20.7539 22.4005 20.8047 22.3019L21.1776 22.6611C21.195 22.6071 21.2077 22.553 21.2109 22.5054C21.1791 22.5387 21.149 22.5721 21.1188 22.6039C21.1379 22.5832 21.2045 22.3147 21.2141 22.472C21.2141 22.4815 21.2125 22.4942 21.2109 22.5054C21.2886 22.4227 21.3664 22.3401 21.4441 22.2574C21.3315 22.1526 21.2204 22.0461 21.1077 21.9412C21.1046 21.938 21.1014 21.9364 21.0966 21.9333C21.0871 21.9428 21.0792 21.9523 21.0697 21.9619C21.0697 21.9619 21.0665 21.9619 21.0649 21.9619C21.0744 21.9507 21.0839 21.9412 21.0935 21.9301C20.8888 21.7473 20.6412 21.7887 20.473 21.9285C20.3905 22.0493 20.3334 22.1716 20.2874 22.3035C20.2874 22.41 20.3302 22.5181 20.4318 22.615C20.6333 22.8057 20.8348 22.9948 21.0363 23.1855L21.0411 23.1839Z" fill="#4E78BA"/>
<path d="M34.3608 13.0181L34.007 12.6987L34.3513 13.0229C34.3513 13.0229 34.3576 13.0197 34.3608 13.0181Z" fill="black"/>
<path d="M23.6673 23.6973C23.9085 23.4414 24.1497 23.1856 24.3893 22.9281C27.3741 19.753 30.3589 16.5779 33.3436 13.4028L32.9977 13.0754L23.3198 23.3683L23.6657 23.6957L23.6673 23.6973Z" fill="#4E78BA"/>
<path d="M24.3607 24.3505L24.7066 24.6779L34.3846 14.385L34.0387 14.0576C33.7975 14.3135 33.5563 14.5693 33.3167 14.8268C30.3319 18.0019 27.3471 21.177 24.3623 24.3521L24.3607 24.3505Z" fill="#4E78BA"/>
<path d="M33.3453 13.4045C33.4547 13.2885 33.5626 13.1725 33.6721 13.0581C33.5563 12.9484 33.4405 12.8404 33.3262 12.7307L32.9993 13.0771L33.3453 13.4045Z" fill="#4E78BA"/>
<path d="M34.3846 14.3833L34.7114 14.0368C34.5956 13.9272 34.4798 13.8191 34.3655 13.7095C34.2576 13.8255 34.1481 13.9415 34.0386 14.0559L34.3846 14.3833Z" fill="#4E78BA"/>
<path d="M34.0656 12.1203C34.4655 12.4985 34.867 12.8752 35.2668 13.2534C35.3382 12.9355 35.2399 12.5939 34.9733 12.3428C34.7114 12.0965 34.3719 12.0265 34.0656 12.1203Z" fill="#4E78BA"/>
<path d="M32.0916 10.2578C31.6457 9.83672 30.9713 10.5105 31.4188 10.9316C31.5378 11.0445 31.6568 11.1557 31.7759 11.2685C31.9933 11.0365 32.2106 10.8061 32.428 10.5741C32.3154 10.4692 32.2043 10.3627 32.0916 10.2578Z" fill="#4E78BA"/>
<path d="M40.9445 10.6298C40.7255 9.44427 39.8337 8.64811 39.0466 7.9473C38.8943 7.81222 38.7451 7.67714 38.6023 7.54206C36.8981 5.93544 35.4287 6.14362 34.4941 6.60129C33.5975 7.04149 32.8517 7.9171 32.1932 8.68943C31.9742 8.94687 31.7663 9.19001 31.568 9.40136L21.7631 19.8309C21.5997 20.0057 21.4346 20.1789 21.2696 20.3537C20.9411 20.7002 20.6016 21.0577 20.2731 21.4169C20.2128 21.482 20.1636 21.5472 20.116 21.6107C20.2302 21.5011 20.3683 21.4153 20.5222 21.3692C20.6793 21.3215 20.8364 21.3168 20.9856 21.3501C21.3585 20.9512 21.7345 20.5555 22.109 20.1583C25.0192 17.0626 27.9294 13.9686 30.8397 10.8729C30.7444 10.5678 30.8143 10.2261 31.0618 9.96392C31.3125 9.69694 31.6537 9.59841 31.9695 9.66834C32.125 9.7033 32.2741 9.77958 32.4042 9.89717C32.5724 9.71124 32.7407 9.51578 32.9184 9.3076C33.5166 8.6052 34.1942 7.80904 34.9146 7.45625C35.1939 7.31958 35.4731 7.24172 35.7572 7.22583C34.9273 7.29416 34.3703 7.81381 33.9085 8.30485L32.409 9.90035C32.409 9.90035 32.4169 9.90671 32.4201 9.90989L32.7565 10.2261L33.1024 10.5535L34.602 8.95799C35.0875 8.44152 35.4477 8.16342 35.9698 8.17136C36.6902 8.18408 37.444 8.9707 38.0485 9.60159C38.2072 9.76686 38.358 9.92419 38.5055 10.0656C39.2132 10.7474 39.2593 11.5753 38.6309 12.2809C38.4278 12.5081 38.2104 12.7354 37.9993 12.9563C37.8898 13.0707 37.7804 13.1851 37.6725 13.2995L36.8949 14.1275L33.1024 10.5519L32.7756 10.8983L32.1234 11.5928C32.5248 11.971 32.9247 12.3492 33.3262 12.7274C33.442 12.8371 33.5579 12.9451 33.6721 13.0548C33.7848 12.9356 33.8958 12.8164 34.0085 12.6972C34.429 12.2491 35.1018 12.9245 34.6813 13.371C34.575 13.4839 34.4703 13.5951 34.3655 13.7079C34.4814 13.8176 34.5972 13.9256 34.7115 14.0353C35.1129 14.4135 35.5128 14.7917 35.9143 15.1699L35.5874 15.5164L35.9333 15.8437C35.205 16.6192 34.475 17.3947 33.7451 18.1702C31.2491 20.8257 28.7514 23.4812 26.2554 26.1366L25.9094 25.8093L25.5826 26.1557C25.1811 25.7775 24.7812 25.3993 24.3797 25.021L24.0433 25.3786C23.9275 25.5026 23.7895 25.5884 23.6419 25.636L24.6289 26.5673L24.1068 26.7294L24.5051 27.1044C22.9104 27.5986 21.3156 28.0929 19.7193 28.5871L19.5162 29.4182C19.321 29.2227 19.1258 29.0273 18.9306 28.8318C19.1941 28.7508 19.4559 28.6697 19.7193 28.5871C20.0969 27.0424 20.473 25.4994 20.8491 23.9547C20.8681 23.8737 20.8888 23.7942 20.9078 23.7132L20.1112 22.9615L20.1065 22.9567C19.8922 22.7549 19.7891 22.4895 19.8129 22.2162C19.7701 22.3513 19.7352 22.4895 19.7002 22.6341L18.2594 28.5394L18.2023 28.7762L18.1357 29.0511C18.0531 29.3896 18.161 29.7503 18.4181 29.9935C18.6641 30.2255 19.0036 30.3049 19.3242 30.2064L19.5574 30.1333L19.8526 30.0411L26.1046 28.104C26.2966 28.0722 26.4807 27.9768 26.6298 27.8195L38.7737 14.903C38.8991 14.7695 39.0292 14.636 39.1609 14.5009C40.1447 13.4934 41.2602 12.3508 40.9413 10.6266L40.9445 10.6298ZM35.2669 13.2519C34.867 12.8736 34.4655 12.497 34.0656 12.1188C34.3703 12.0234 34.7115 12.095 34.9733 12.3413C35.2399 12.5924 35.3398 12.9356 35.2669 13.2519Z" fill="#4E78BA"/>
<path d="M33.9069 8.30657C34.3687 7.81552 34.9257 7.29587 35.7556 7.22754C35.4731 7.24502 35.1923 7.3213 34.913 7.45796C34.1942 7.81075 33.515 8.60691 32.9168 9.30932C32.7391 9.51749 32.5709 9.71296 32.4026 9.89889C32.4026 9.89889 32.4042 9.89889 32.4058 9.90048L33.9054 8.30498L33.9069 8.30657Z" fill="#4E78BA"/>
<path d="M32.3968 9.91267L32.4072 9.90215C32.4072 9.90215 32.4054 9.90215 32.4037 9.90039C32.4002 9.90566 32.395 9.90916 32.3915 9.91443H32.3968V9.91267Z" fill="#4E78BA"/>
<path d="M31.9139 9.73024C31.933 9.71117 31.9504 9.69051 31.9695 9.66985C31.6537 9.59834 31.3125 9.69846 31.0618 9.96543L31.7188 9.94001C31.7838 9.87008 31.8489 9.80175 31.9155 9.73183L31.9139 9.73024Z" fill="#4E78BA"/>
<path d="M31.7172 9.93849L32.3916 9.91147C32.3916 9.91147 32.3995 9.90353 32.4027 9.89876C32.2725 9.78116 32.1234 9.70488 31.9679 9.66992C31.9488 9.69058 31.9314 9.71124 31.9123 9.73031C31.8473 9.80023 31.7822 9.86857 31.7156 9.93849H31.7172Z" fill="#4E78BA"/>
<path d="M32.4169 9.90993C32.4169 9.90993 32.409 9.90357 32.4058 9.90039L32.3963 9.90993H32.4169Z" fill="#4E78BA"/>
<path d="M24.3607 24.3503L24.0338 24.6968C24.1497 24.8064 24.2655 24.9145 24.3797 25.0241L24.7066 24.6777L24.3607 24.3503Z" fill="#4E78BA"/>
<path d="M23.3213 23.3699L22.9944 23.7163C23.1103 23.826 23.2261 23.934 23.3404 24.0437C23.4499 23.9277 23.5578 23.8117 23.6673 23.6972L23.3213 23.3699Z" fill="#4E78BA"/>
<path d="M22.455 24.9671C22.5565 25.3056 22.839 25.5741 23.1754 25.6536C23.2452 25.6695 23.315 25.6774 23.3832 25.6774C23.4721 25.6774 23.5594 25.6631 23.6435 25.6361C23.242 25.2563 22.839 24.8781 22.4375 24.4983C22.4042 24.6493 22.4089 24.8082 22.4565 24.9655L22.455 24.9671Z" fill="#4E78BA"/>
<path d="M23.6974 25.0544C23.2769 25.5025 22.6041 24.8271 23.0246 24.3806C23.1294 24.2677 23.2357 24.1565 23.3404 24.0437C23.2246 23.934 23.1087 23.826 22.9945 23.7163L22.6787 24.0532C22.5549 24.1851 22.474 24.3377 22.4375 24.4998C22.839 24.8796 23.242 25.2578 23.6435 25.6376C23.791 25.5915 23.9275 25.5041 24.0449 25.3801L24.3813 25.0226C24.2655 24.9129 24.1497 24.8049 24.0354 24.6952C23.9228 24.8144 23.8117 24.9336 23.699 25.0528L23.6974 25.0544Z" fill="#4E78BA"/>
<path d="M23.6673 23.6973L24.3607 24.3504C27.3455 21.1753 30.3303 18.0002 33.3151 14.8251C33.5563 14.5693 33.7975 14.3134 34.0371 14.056L33.3437 13.4028C30.3589 16.5779 27.3741 19.753 24.3893 22.9282C24.1481 23.184 23.9069 23.4399 23.6673 23.6973Z" fill="#4E78BA"/>
<path d="M34.0371 14.0574C34.1466 13.9414 34.2545 13.8254 34.3639 13.711C34.1323 13.4933 33.9022 13.2756 33.6705 13.0579C33.561 13.1739 33.4531 13.2899 33.3436 13.4043L34.0371 14.0574Z" fill="#4E78BA"/>
<path d="M34.6797 13.3727C35.1002 12.9261 34.4274 12.2507 34.0069 12.6989L34.3608 13.0183C34.3576 13.0199 34.3544 13.0215 34.3513 13.0231L34.0069 12.6989C33.8943 12.8181 33.7832 12.9373 33.6705 13.0564C33.9022 13.2742 34.1323 13.4919 34.364 13.7096C34.4703 13.5968 34.575 13.4855 34.6797 13.3727Z" fill="#4E78BA"/>
<path d="M23.3404 24.0437C23.5721 24.2614 23.8022 24.4791 24.0338 24.6968L24.3607 24.3504L23.6673 23.6973C23.5578 23.8133 23.4499 23.9293 23.3404 24.0437Z" fill="#4E78BA"/>
<path d="M23.0246 24.3806C22.6041 24.8271 23.2769 25.5025 23.6974 25.0544C23.8101 24.9352 23.9212 24.816 24.0338 24.6968C23.8021 24.4791 23.5721 24.2614 23.3404 24.0437C23.2357 24.1565 23.1293 24.2678 23.0246 24.3806Z" fill="#4E78BA"/>
<path d="M23.2119 8.53223H7.51196C6.97879 8.53223 6.57574 8.94223 6.57574 9.48571C6.57574 10.0292 6.97879 10.4392 7.51196 10.4392H23.2119C23.745 10.4392 24.1481 10.0292 24.1481 9.48571C24.1481 8.94223 23.745 8.53223 23.2119 8.53223ZM23.2119 9.96245H7.51196C6.89787 9.96245 6.89945 9.00897 7.51196 9.00897H23.2119C23.826 9.00897 23.8244 9.96245 23.2119 9.96245Z" fill="#4E78BA"/>
<path d="M23.2118 9.00879H7.51195C6.89944 9.00879 6.89785 9.96227 7.51195 9.96227H23.2118C23.8244 9.96227 23.8259 9.00879 23.2118 9.00879Z" fill="#4E78BA"/>
<path d="M24.1481 14.5392C24.1481 13.9957 23.745 13.5857 23.2119 13.5857H7.51196C6.97879 13.5857 6.57574 13.9957 6.57574 14.5392C6.57574 15.0827 6.97879 15.4927 7.51196 15.4927H23.2119C23.745 15.4927 24.1481 15.0827 24.1481 14.5392ZM7.51196 15.0159C6.89787 15.0159 6.89945 14.0624 7.51196 14.0624H23.2119C23.826 14.0624 23.8244 15.0159 23.2119 15.0159H7.51196Z" fill="#4E78BA"/>
<path d="M23.2118 14.0623H7.51195C6.89944 14.0623 6.89785 15.0157 7.51195 15.0157H23.2118C23.8244 15.0157 23.8259 14.0623 23.2118 14.0623Z" fill="#4E78BA"/>
<path d="M19.3877 19.3273C19.3877 18.7838 18.9846 18.3738 18.4514 18.3738H7.51196C6.97879 18.3738 6.57574 18.7838 6.57574 19.3273C6.57574 19.8708 6.97879 20.2808 7.51196 20.2808H18.4514C18.9846 20.2808 19.3877 19.8708 19.3877 19.3273ZM7.51196 18.8505H18.4514C19.0655 18.8505 19.0639 19.804 18.4514 19.804H7.51196C6.89787 19.804 6.89945 18.8505 7.51196 18.8505Z" fill="#4E78BA"/>
<path d="M18.4514 18.8503H7.51195C6.89944 18.8503 6.89785 19.8038 7.51195 19.8038H18.4514C19.0639 19.8038 19.0655 18.8503 18.4514 18.8503Z" fill="#4E78BA"/>
</g>
<defs>
<clipPath id="clip0_594_2096">
<rect width="41" height="37" fill="white"/>
</clipPath>
</defs>
</svg>
