<svg width="14" height="15" viewBox="0 0 14 15" fill="none" xmlns="http://www.w3.org/2000/svg">
<g clip-path="url(#clip0_465_2007)">
<path d="M3.57386 15C2.61933 15 1.72178 14.6305 1.04672 13.9594C0.371649 13.2884 0 12.3965 0 11.4472C0 10.4979 0.371649 9.606 1.04672 8.93491L9.21356 0.816496C9.74309 0.290085 10.4472 0 11.1963 0C11.9454 0 12.6495 0.290085 13.179 0.816496C13.7086 1.34291 14.0004 2.04286 14.0004 2.78756C14.0004 3.53226 13.7086 4.23221 13.179 4.75862L6.10136 11.7946C5.30834 12.583 4.0181 12.583 3.22471 11.7946C2.84036 11.4125 2.62913 10.9049 2.62913 10.3648C2.62913 9.82465 2.84072 9.317 3.22471 8.93491L8.66916 3.52251C8.86224 3.33057 9.17509 3.33057 9.36781 3.52251C9.5609 3.71446 9.5609 4.02547 9.36781 4.21706L3.92337 9.62946C3.72593 9.82573 3.61705 10.087 3.61705 10.3648C3.61705 10.6426 3.72593 10.9035 3.92337 11.1001C4.12081 11.2964 4.38357 11.4046 4.66304 11.4046C4.9425 11.4046 5.20491 11.2964 5.40271 11.1001L12.4804 4.06408C12.8234 3.72312 13.0121 3.26995 13.0121 2.78756C13.0121 2.30517 12.8234 1.852 12.4804 1.51104C12.1374 1.17008 11.6815 0.982465 11.1963 0.982465C10.7114 0.982465 10.2552 1.17008 9.91222 1.51104L1.74537 9.62946C1.25686 10.1151 0.987919 10.7606 0.987919 11.4472C0.987919 12.1338 1.25686 12.7793 1.74537 13.2649C2.23389 13.7505 2.88319 14.0179 3.57386 14.0179C4.26453 14.0179 4.91383 13.7505 5.40234 13.2649L11.9356 6.7701C12.1287 6.57815 12.4415 6.57815 12.6343 6.7701C12.827 6.96204 12.8273 7.27306 12.6343 7.46464L6.101 13.9594C5.42594 14.6305 4.52839 15 3.57386 15Z" fill="#4E78BA"/>
</g>
<defs>
<clipPath id="clip0_465_2007">
<rect width="14" height="15" fill="white"/>
</clipPath>
</defs>
</svg>
