<svg width="13" height="13" viewBox="0 0 13 13" fill="none" xmlns="http://www.w3.org/2000/svg">
<path d="M12.5401 1.42999H6.81006V11.46H12.5401C12.7401 11.46 12.9001 11.3 12.9001 11.1V1.78999C12.9001 1.58999 12.7401 1.42999 12.5401 1.42999Z" fill="#4CAF50"/>
<path d="M9.32006 3.21997H11.8301V4.29997H9.32006V3.21997ZM9.32006 6.80997H11.8301V7.88997H9.32006V6.80997ZM9.32006 8.59997H11.8301V9.67997H9.32006V8.59997ZM9.32006 5.01997H11.8301V6.09997H9.32006V5.01997ZM6.81006 3.21997H8.60006V4.29997H6.81006V3.21997ZM6.81006 6.80997H8.60006V7.88997H6.81006V6.80997ZM6.81006 8.59997H8.60006V9.67997H6.81006V8.59997ZM6.81006 5.01997H8.60006V6.09997H6.81006V5.01997Z" fill="white"/>
<path d="M7.52 12.9L0 11.47V1.43L7.52 0V12.9Z" fill="#2E7D32"/>
<path d="M4.6999 8.95999L3.8399 7.32999C3.7899 7.21999 3.7599 7.10999 3.7399 6.98999H3.7299C3.6999 7.10999 3.6599 7.22999 3.6099 7.33999L2.7399 8.95999H1.3999L2.9999 6.44999L1.5299 3.93999H2.9099L3.6299 5.43999C3.6899 5.57999 3.7399 5.71999 3.7799 5.85999H3.7899C3.8199 5.75999 3.8699 5.61999 3.9499 5.41999L4.7499 3.92999H6.0099L4.5099 6.41999L6.0599 8.94999H4.7099L4.6999 8.95999Z" fill="white"/>
</svg>
