<svg width="34" height="42" viewBox="0 0 34 42" fill="none" xmlns="http://www.w3.org/2000/svg">
<g clip-path="url(#clip0_297_1262)">
<path d="M29.6598 34.5484H4.34015C1.94727 34.5484 0 32.8413 0 30.7435V17.9606C0 13.7313 0.504848 9.48839 1.49652 5.34936L1.53515 5.19355C2.25636 2.18355 5.32667 0 8.83485 0H25.1651C28.6733 0 31.7436 2.18355 32.4648 5.19355L32.5035 5.34936C33.4977 9.48839 34 13.7313 34 17.9606V30.7435C34 32.8413 32.0527 34.5484 29.6598 34.5484ZM8.83485 0.903226C5.81091 0.903226 3.16561 2.78645 2.54227 5.37871L2.50364 5.53452C1.52485 9.61258 1.02773 13.7923 1.02773 17.9606V30.7435C1.02773 32.3445 2.51394 33.6452 4.33758 33.6452H29.6547C31.4809 33.6452 32.9645 32.3423 32.9645 30.7435V17.9606C32.9645 13.7945 32.4674 9.61258 31.4886 5.53452L31.45 5.37871C30.8267 2.78419 28.1814 0.903226 25.1574 0.903226H8.82712H8.83485Z" fill="#2B2B2B"/>
<path d="M29.0854 21.8671H4.61574C4.3324 21.8671 4.10059 21.6639 4.10059 21.4155V12.2139C4.10059 9.58779 6.53725 7.45166 9.53286 7.45166H24.1683C27.1639 7.45166 29.6006 9.58779 29.6006 12.2139V21.4155C29.6006 21.6639 29.3688 21.8671 29.0854 21.8671ZM5.13089 20.9639H28.5703V12.2139C28.5703 10.0868 26.5947 8.35489 24.1683 8.35489H9.53286C7.10649 8.35489 5.13089 10.0868 5.13089 12.2139V20.9639Z" fill="#2B2B2B"/>
<path d="M8.0057 30.258C6.44221 30.258 5.17236 29.1448 5.17236 27.7742C5.17236 26.4035 6.44221 25.2903 8.0057 25.2903C9.56918 25.2903 10.839 26.4035 10.839 27.7742C10.839 29.1448 9.56918 30.258 8.0057 30.258ZM8.0057 26.1935C7.01145 26.1935 6.20267 26.9025 6.20267 27.7742C6.20267 28.6458 7.01145 29.3548 8.0057 29.3548C8.99994 29.3548 9.80873 28.6458 9.80873 27.7742C9.80873 26.9025 8.99994 26.1935 8.0057 26.1935Z" fill="#2B2B2B"/>
<path d="M26.5511 30.258C24.9876 30.258 23.7178 29.1448 23.7178 27.7742C23.7178 26.4035 24.9876 25.2903 26.5511 25.2903C28.1146 25.2903 29.3844 26.4035 29.3844 27.7742C29.3844 29.1448 28.1146 30.258 26.5511 30.258ZM26.5511 26.1935C25.5569 26.1935 24.7481 26.9025 24.7481 27.7742C24.7481 28.6458 25.5569 29.3548 26.5511 29.3548C27.5453 29.3548 28.3541 28.6458 28.3541 27.7742C28.3541 26.9025 27.5453 26.1935 26.5511 26.1935Z" fill="#2B2B2B"/>
<path d="M32.5625 42C32.4131 42 32.2637 41.9435 32.1633 41.8329L25.2293 34.3813C25.049 34.1871 25.0825 33.9026 25.304 33.7468C25.523 33.5887 25.8501 33.6181 26.0278 33.8122L32.9618 41.2639C33.1421 41.4581 33.1086 41.7426 32.8871 41.8984C32.7918 41.9661 32.6759 42 32.5625 42Z" fill="#2B2B2B"/>
<path d="M1.43708 42.0005C1.32374 42.0005 1.20783 41.9666 1.11253 41.8989C0.891014 41.7408 0.860105 41.4563 1.03783 41.2644L7.97177 33.8128C8.15207 33.6186 8.47662 33.5915 8.69556 33.7473C8.91707 33.9053 8.94798 34.1899 8.77026 34.3818L1.83632 41.8334C1.73329 41.9418 1.58647 42.0005 1.43708 42.0005Z" fill="#2B2B2B"/>
<path d="M29.289 38.518H4.81935C4.53602 38.518 4.3042 38.3147 4.3042 38.0664C4.3042 37.818 4.53602 37.6147 4.81935 37.6147H29.289C29.5724 37.6147 29.8042 37.818 29.8042 38.0664C29.8042 38.3147 29.5724 38.518 29.289 38.518Z" fill="#2B2B2B"/>
<path d="M22.4193 4.59292H10.5708C10.2875 4.59292 10.0557 4.3897 10.0557 4.14131C10.0557 3.89292 10.2875 3.6897 10.5708 3.6897H22.4193C22.7026 3.6897 22.9345 3.89292 22.9345 4.14131C22.9345 4.3897 22.7026 4.59292 22.4193 4.59292Z" fill="#2B2B2B"/>
</g>
<defs>
<clipPath id="clip0_297_1262">
<rect width="34" height="42" fill="white"/>
</clipPath>
</defs>
</svg>
