<svg width="14" height="14" viewBox="0 0 14 14" fill="none" xmlns="http://www.w3.org/2000/svg">
<path d="M0.979417 11.9496C0.588892 12.3402 0.588892 12.9733 0.979417 13.3638C1.36994 13.7544 2.00311 13.7544 2.39363 13.3638L0.979417 11.9496ZM14.0002 1.34303C14.0002 0.790745 13.5525 0.34303 13.0002 0.343029L4.00023 0.34303C3.44795 0.34303 3.00023 0.790745 3.00023 1.34303C3.00023 1.89531 3.44795 2.34303 4.00023 2.34303L12.0002 2.34303L12.0002 10.343C12.0002 10.8953 12.4479 11.343 13.0002 11.343C13.5525 11.343 14.0002 10.8953 14.0002 10.343L14.0002 1.34303ZM1.68652 12.6567L2.39363 13.3638L13.7073 2.05014L13.0002 1.34303L12.2931 0.635923L0.979417 11.9496L1.68652 12.6567Z" fill="#4E78BA"/>
</svg>
