<svg width="15" height="16" viewBox="0 0 15 16" fill="none" xmlns="http://www.w3.org/2000/svg">
<g clip-path="url(#clip0_1051_3595)">
<mask id="mask0_1051_3595" style="mask-type:luminance" maskUnits="userSpaceOnUse" x="0" y="0" width="15" height="16">
<path d="M14.708 0H0V15.244H14.708V0Z" fill="white"/>
</mask>
<g mask="url(#mask0_1051_3595)">
<path d="M14.388 5.74004L8.174 0.307037C7.94655 0.109352 7.65535 0.000488281 7.354 0.000488281C7.05265 0.000488281 6.76145 0.109352 6.534 0.307037L0.32 5.74104C0.219508 5.82896 0.138969 5.93735 0.0837795 6.05894C0.0285903 6.18053 2.57712e-05 6.31251 0 6.44604L0 14.307C0.000264706 14.5555 0.0990691 14.7936 0.274733 14.9693C0.450398 15.145 0.688573 15.2438 0.937 15.244H13.771C14.0194 15.2438 14.2576 15.145 14.4333 14.9693C14.6089 14.7936 14.7077 14.5555 14.708 14.307V6.44604C14.7081 6.31234 14.6796 6.18017 14.6244 6.0584C14.5692 5.93662 14.4886 5.82807 14.388 5.74004ZM9.827 12.277H4.882C4.66983 12.277 4.46634 12.1928 4.31631 12.0427C4.16629 11.8927 4.082 11.6892 4.082 11.477C4.082 11.2649 4.16629 11.0614 4.31631 10.9114C4.46634 10.7613 4.66983 10.677 4.882 10.677H9.827C10.0392 10.677 10.2427 10.7613 10.3927 10.9114C10.5427 11.0614 10.627 11.2649 10.627 11.477C10.627 11.6892 10.5427 11.8927 10.3927 12.0427C10.2427 12.1928 10.0392 12.277 9.827 12.277Z" fill="#B5B5B5"/>
</g>
</g>
<defs>
<clipPath id="clip0_1051_3595">
<rect width="14.708" height="15.244" fill="white"/>
</clipPath>
</defs>
</svg>
