<svg width="7" height="25" viewBox="0 0 7 25" fill="none" xmlns="http://www.w3.org/2000/svg">
<g clip-path="url(#clip0_207_1063)">
<path d="M6.88168 3.31736L5.67826 15.9409C5.5873 16.8927 4.60831 17.5192 3.44794 17.5192C2.28811 17.5192 1.30858 16.8927 1.21762 15.9409L0.0147339 3.31736C-0.169332 1.38565 1.39361 0 3.44848 0C5.50334 0 7.06629 1.38565 6.88168 3.31736ZM3.44848 19.0047C1.79727 19.0047 0.458752 20.3466 0.458752 22.0021C0.458752 23.6575 1.79727 24.9995 3.44848 24.9995C5.09969 24.9995 6.4382 23.6575 6.4382 22.0021C6.4382 20.3466 5.09969 19.0047 3.44848 19.0047Z" fill="white"/>
</g>
<defs>
<clipPath id="clip0_207_1063">
<rect width="6.89655" height="25" fill="white"/>
</clipPath>
</defs>
</svg>
